<svg xmlns="http://www.w3.org/2000/svg" viewBox="0 0 689 587" width="689" height="587" fill="none">
  <g stroke="#7A8B88" stroke-width="3.2" stroke-linecap="round" stroke-linejoin="round">
    <!-- baseline -->
    <path d="M0 573 H689"/>

    <!-- cat outer silhouette -->
    <path d="M61 546
             C54 523, 52 488, 57 451
             C61 425, 74 397, 92 380
             C110 363, 121 345, 144 323
             C165 303, 191 290, 214 278
             C231 269, 238 251, 246 233
             C251 221, 251 208, 254 194
             C258 175, 269 158, 280 163
             C288 167, 294 181, 301 190
             C309 202, 323 208, 337 209
             C349 209, 357 197, 357 184
             C357 173, 349 163, 353 155
             C358 146, 368 147, 373 156
             C379 168, 381 183, 379 196
             C377 214, 373 229, 378 241
             C384 257, 384 276, 379 291
             C374 305, 374 321, 380 336
             C386 352, 388 371, 383 391
             C377 414, 362 437, 350 458
             C335 484, 321 513, 316 544"/>

    <!-- cat tail -->
    <path d="M62 548
             C61 515, 63 481, 63 452
             C63 417, 56 392, 41 378
             C26 364, 10 359, 1 369
             C-5 377, 11 389, 24 390
             C42 391, 51 399, 59 413
             C69 430, 72 453, 72 477
             C72 503, 69 524, 63 544"/>

    <!-- cat front leg / inner detail -->
    <path d="M225 449
             C239 455, 245 472, 245 492
             C245 513, 232 531, 225 547
             C242 548, 258 548, 272 548
             C256 539, 252 525, 252 508
             C251 489, 256 469, 253 452
             C250 437, 242 428, 234 432
             C228 435, 226 442, 225 449"/>

    <!-- cat hind leg -->
    <path d="M289 478
             C284 500, 282 524, 286 548
             C300 550, 312 550, 324 548
             C316 538, 311 525, 308 509
             C304 489, 305 470, 301 451
             C298 438, 292 436, 287 444
             C282 451, 282 463, 289 478"/>

    <!-- cat belly connection -->
    <path d="M334 428
             C318 443, 305 456, 293 470"/>

    <!-- dog outer silhouette -->
    <path d="M395 575
             C400 560, 401 538, 401 512
             C402 475, 403 434, 407 395
             C411 357, 419 327, 427 289
             C434 258, 435 230, 433 202
             C431 182, 421 168, 407 160
             C396 153, 385 145, 383 134
             C382 124, 389 116, 401 114
             C415 112, 427 107, 432 94
             C437 80, 447 62, 469 56
             C492 50, 516 51, 536 58
             C557 66, 573 81, 584 101
             C592 117, 597 139, 598 160
             C600 184, 606 210, 611 238
             C616 263, 618 291, 617 319
             C617 343, 621 362, 631 382
             C643 406, 648 435, 651 466
             C654 494, 661 516, 675 529
             C686 539, 689 552, 689 573"/>

    <!-- dog chest / snout connection -->
    <path d="M382 131
             C374 127, 365 130, 364 138
             C363 147, 369 154, 369 165
             C369 177, 365 187, 367 197
             C370 212, 379 225, 390 232
             C402 240, 416 244, 424 252"/>

    <!-- dog ear outer -->
    <path d="M466 117
             C474 93, 487 63, 501 43
             C510 31, 518 28, 522 34
             C526 40, 523 51, 520 64
             C516 79, 511 97, 504 112
             C496 130, 484 144, 474 153"/>

    <!-- dog ear inner -->
    <path d="M517 124
             C526 112, 532 99, 535 86
             C539 72, 539 57, 534 49"/>

    <!-- dog front leg -->
    <path d="M438 337
             C446 354, 451 374, 449 395
             C448 414, 439 434, 431 451
             C425 466, 425 482, 430 501
             C434 515, 435 530, 431 548
             C446 549, 460 549, 474 548
             C463 537, 455 523, 451 505
             C447 485, 450 466, 458 449
             C466 431, 471 413, 468 395
             C464 372, 450 352, 438 337"/>

    <!-- dog rear leg -->
    <path d="M518 506
             C530 520, 537 536, 540 548
             C554 548, 567 548, 581 548
             C573 539, 566 526, 561 510"/>

    <!-- dog belly / inner leg -->
    <path d="M452 547
             C440 525, 435 499, 435 472
             C435 444, 442 417, 451 391"/>
  </g>
</svg>
