<svg version="1.0" xmlns="http://www.w3.org/2000/svg"
 width="240.000000pt" height="192.000000pt" viewBox="0 0 240.000000 192.000000"
 preserveAspectRatio="xMidYMid meet">

<g transform="translate(0.000000,192.000000) scale(0.100000,-0.100000)"
fill="#2D2D2D" stroke="none">
<path d="M682 1728 c-7 -7 -12 -22 -12 -34 0 -16 -8 -23 -30 -27 l-30 -6 0
-156 0 -155 -41 0 c-31 0 -47 -6 -70 -29 -25 -26 -29 -37 -29 -85 0 -53 -1
-56 -25 -56 -32 0 -65 -33 -65 -65 0 -39 26 -281 63 -579 33 -262 34 -270 61
-293 l27 -23 683 0 c667 0 684 0 709 20 29 23 26 7 92 528 51 404 52 390 -52
418 -8 2 -12 21 -12 54 2 60 -11 78 -62 86 l-38 6 -3 62 c-3 58 -4 61 -30 64
-25 3 -28 8 -28 38 0 31 -13 49 -97 140 l-98 104 -450 0 c-338 0 -454 -3 -463
-12z m896 -95 c1 -47 7 -92 13 -100 8 -9 38 -13 95 -13 l84 0 -2 -167 -3 -168
-305 -3 c-199 -2 -318 1 -343 8 -32 9 -42 20 -68 71 -40 81 -61 89 -229 89
l-130 0 0 178 c0 98 3 182 7 185 3 4 202 7 442 7 l436 0 3 -87z m96 -7 c36
-41 66 -77 66 -80 0 -12 -131 -6 -134 7 -10 31 -16 147 -8 147 5 0 39 -33 76
-74z m-1004 -131 c0 -138 -1 -145 -20 -145 -19 0 -20 7 -20 145 0 138 1 145
20 145 19 0 20 -7 20 -145z m1160 -185 c0 -123 -1 -130 -20 -130 -19 0 -20 7
-20 130 0 123 1 130 20 130 19 0 20 -7 20 -130z m-851 6 c13 -7 37 -40 55 -72
47 -89 38 -87 487 -80 430 7 486 4 501 -30 11 -24 4 -105 -47 -519 -40 -326
-44 -344 -70 -361 -19 -12 -115 -14 -698 -12 -620 3 -678 4 -693 20 -18 18
-27 74 -84 572 -17 148 -29 280 -26 292 4 16 18 27 46 35 41 12 44 18 40 72
-3 41 19 85 43 90 12 2 112 5 222 5 148 1 206 -2 224 -12z m933 -18 c10 -8 18
-32 20 -63 l3 -50 -42 -3 -43 -3 0 65 c0 62 1 66 23 66 13 0 30 -6 39 -12z"/>
<path d="M819 1599 c-33 -12 -43 -46 -23 -76 l14 -23 313 0 c326 0 336 1 351
43 4 12 -3 27 -19 43 l-24 24 -293 -1 c-162 0 -305 -5 -319 -10z m634 -31 c2
-7 0 -21 -5 -30 -8 -17 -34 -18 -319 -18 -266 0 -310 2 -315 15 -4 8 -4 22 0
30 5 13 50 15 320 15 242 0 315 -3 319 -12z"/>
<path d="M803 1445 c-24 -17 -22 -41 5 -62 20 -17 813 -19 843 -3 21 12 25 50
7 68 -9 9 -117 12 -423 12 -352 0 -414 -2 -432 -15z m842 -30 c0 -20 -8 -20
-413 -23 -372 -2 -413 -1 -419 14 -3 9 0 20 8 25 8 5 195 8 419 6 398 -2 405
-2 405 -22z"/>
<path d="M1080 1300 c0 -6 106 -11 282 -12 260 -3 283 -4 286 -20 3 -17 -15
-18 -262 -18 -174 0 -266 -4 -266 -10 0 -7 93 -9 273 -8 l272 3 3 24 c7 48
-10 51 -310 51 -176 0 -278 -4 -278 -10z"/>
<path d="M1147 1023 c-4 -3 -7 -33 -7 -65 l0 -58 -59 0 c-38 0 -60 -4 -63 -12
-3 -7 -2 -40 1 -73 l6 -60 58 -3 57 -3 0 -58 c0 -38 4 -60 13 -63 10 -3 65 -3
130 1 5 1 7 28 5 61 l-3 60 61 0 c41 0 63 4 66 13 2 6 2 40 0 75 l-4 62 -59 0
-59 0 0 53 c0 29 -5 58 -12 65 -13 13 -120 17 -131 5z m115 -50 c1 -21 2 -49
3 -63 1 -24 4 -25 63 -28 l62 -3 0 -54 0 -55 -60 0 -60 0 0 -60 0 -60 -55 0
-55 0 0 60 0 60 -60 0 -60 0 0 55 0 54 63 3 62 3 -3 52 c-2 29 -1 57 3 63 3 5
26 10 51 10 44 0 44 0 46 -37z"/>
<path d="M645 497 c-9 -35 -1 -137 10 -138 6 0 11 9 13 21 4 27 39 26 69 -2
25 -24 44 -18 23 7 -11 14 -11 21 4 46 16 27 16 32 3 53 -15 22 -54 36 -98 36
-11 0 -21 -9 -24 -23z m79 -7 c32 -12 34 -45 6 -60 -35 -19 -60 -3 -60 36 0
37 10 41 54 24z"/>
<path d="M814 507 c-3 -8 -4 -45 -2 -83 l3 -68 55 1 c72 2 76 5 15 12 -45 5
-50 9 -53 34 -3 26 -2 27 43 27 28 0 44 4 40 10 -3 6 -24 10 -46 10 -39 0 -44
5 -33 34 4 11 19 16 45 16 21 0 39 5 39 10 0 16 -100 12 -106 -3z"/>
<path d="M1004 510 c-28 -11 -54 -48 -54 -76 0 -31 36 -71 70 -79 37 -8 70 2
70 21 0 17 -2 17 -34 3 -20 -10 -30 -9 -51 5 -22 14 -26 24 -23 54 4 47 45 75
79 54 22 -14 39 -8 23 7 -15 15 -57 21 -80 11z"/>
<path d="M1170 513 c-44 -17 -63 -68 -44 -118 17 -43 96 -54 137 -18 24 22 23
94 -1 116 -20 19 -69 29 -92 20z m68 -29 c31 -22 30 -78 -2 -99 -64 -42 -130
41 -76 95 24 24 48 25 78 4z"/>
<path d="M1320 441 c0 -44 4 -81 9 -81 5 0 11 10 13 23 2 17 9 21 28 19 14 -2
32 -12 42 -23 24 -28 42 -24 23 5 -14 21 -14 25 0 36 19 16 20 64 1 79 -8 6
-37 14 -65 18 l-51 6 0 -82z m102 36 c11 -17 4 -30 -24 -46 -37 -21 -58 -9
-58 35 l0 36 37 -7 c21 -4 41 -12 45 -18z"/>
<path d="M1490 438 l0 -83 52 3 c65 5 98 31 98 76 -1 54 -43 86 -116 86 l-34
0 0 -82z m117 36 c32 -43 4 -90 -57 -96 l-35 -3 -3 64 -3 64 43 -6 c23 -3 48
-13 55 -23z"/>
<path d="M1693 510 c-17 -7 -23 -18 -23 -38 0 -30 6 -34 73 -56 11 -4 17 -13
15 -23 -3 -14 -12 -17 -46 -15 -46 3 -57 -14 -17 -24 35 -9 72 3 85 25 15 29
3 49 -38 62 -47 15 -54 22 -46 43 6 15 14 17 45 12 42 -7 54 8 17 18 -29 7
-38 7 -65 -4z"/>
</g>
</svg>
