<svg xmlns="http://www.w3.org/2000/svg" viewBox="0 0 100 100" width="100%" height="100%">
  <g fill="none" stroke="#2D2D2D" stroke-width="2.8" stroke-linecap="round" stroke-linejoin="round">
    <g transform="translate(5, -10) rotate(45 50 50)">
      <rect x="42" y="35" width="16" height="30" rx="4" />
      <line x1="50" y1="18" x2="50" y2="35" />
      <line x1="44" y1="18" x2="56" y2="18" />
      <line x1="42" y1="45" x2="48" y2="45" />
      <line x1="42" y1="55" x2="48" y2="55" />
      <rect x="47" y="65" width="6" height="5" rx="1" />
      <line x1="50" y1="70" x2="50" y2="84" />
    </g>
    
    <path d="M 68 64 C 64 64 61 68 62 72 C 64 76 72 76 74 72 C 75 68 72 64 68 64 Z" />
    <circle cx="60" cy="57" r="2.5" />
    <circle cx="68" cy="53" r="2.5" />
    <circle cx="76" cy="57" r="2.5" />
  </g>
</svg>
