<?xml version="1.0" standalone="no"?>
<!DOCTYPE svg PUBLIC "-//W3C//DTD SVG 20010904//EN"
 "http://www.w3.org/TR/2001/REC-SVG-20010904/DTD/svg10.dtd">
<svg version="1.0" xmlns="http://www.w3.org/2000/svg"
 width="945.000000pt" height="1024.000000pt" viewBox="0 0 945.000000 1024.000000"
 preserveAspectRatio="xMidYMid meet">

<g transform="translate(0.000000,1024.000000) scale(0.100000,-0.100000)"
fill="#000000" stroke="#000000" stroke-width="8" stroke-linecap="round" stroke-linejoin="round">
<path d="M4647 8957 c-50 -26 -95 -58 -220 -157 -45 -36 -112 -87 -149 -115
-36 -27 -158 -122 -270 -210 -261 -206 -406 -320 -471 -369 -29 -22 -104 -80
-167 -131 -192 -153 -300 -238 -408 -321 -57 -43 -161 -124 -232 -179 -70 -55
-166 -129 -212 -164 -45 -36 -123 -97 -173 -136 -49 -39 -171 -134 -270 -210
-256 -198 -378 -292 -454 -353 -36 -29 -110 -87 -164 -129 -146 -111 -243
-209 -257 -259 -17 -58 3 -120 48 -150 52 -35 118 -44 350 -45 119 -1 228 -4
242 -8 15 -4 32 -21 43 -41 17 -33 17 -90 15 -964 -3 -922 -3 -928 -23 -936
-42 -16 -214 -33 -345 -34 -166 -1 -192 9 -315 119 -47 41 -110 89 -140 106
-36 20 -62 44 -79 73 -27 47 -93 110 -133 129 -21 9 -27 8 -39 -8 -8 -10 -14
-42 -14 -69 0 -55 -13 -89 -23 -63 -3 8 -35 36 -71 62 -48 34 -73 46 -93 43
-33 -4 -33 -14 -1 -125 l21 -73 -41 -39 c-54 -53 -71 -87 -81 -169 -8 -66 -30
-124 -51 -137 -15 -9 -12 -72 4 -103 17 -31 71 -84 104 -101 14 -8 60 -11 121
-9 93 2 100 1 140 -25 23 -15 50 -41 60 -57 10 -17 38 -106 62 -198 68 -261
62 -312 -57 -493 -27 -40 -67 -108 -88 -149 -41 -81 -64 -105 -139 -147 -61
-34 -83 -72 -65 -110 26 -54 100 -68 173 -34 51 24 83 55 150 145 61 81 105
125 225 222 141 113 218 185 231 216 6 15 15 28 19 28 12 0 94 -119 107 -155
20 -59 63 -260 63 -297 0 -37 -24 -68 -52 -68 -24 0 -68 -58 -68 -89 0 -50 31
-66 125 -66 81 0 85 1 118 33 53 52 87 203 87 392 0 107 18 238 39 286 18 40
57 64 81 49 6 -4 10 -119 10 -284 0 -382 7 -411 111 -464 84 -42 188 -47 1102
-47 662 0 819 2 823 13 2 7 6 735 7 1617 l2 1604 785 -1 785 -1 3 -1602 c1
-1165 5 -1607 13 -1617 9 -10 86 -13 400 -13 255 0 390 4 394 10 4 6 -7 26
-23 44 -29 34 -30 37 -37 179 -4 80 -6 178 -4 219 4 71 6 75 53 133 84 103
104 184 86 349 -6 55 -12 112 -14 125 -5 52 16 132 59 223 25 52 45 107 45
120 0 14 -20 68 -44 119 -61 128 -80 204 -80 319 -1 75 4 111 23 169 27 82 71
154 114 185 44 32 49 8 21 -93 -55 -192 -52 -271 13 -401 27 -52 51 -84 81
-107 53 -40 89 -42 205 -11 91 24 259 28 682 18 l210 -5 57 27 c69 32 129 109
209 265 l52 101 71 -74 c82 -85 108 -93 149 -44 35 41 47 109 47 265 0 129 1
135 23 149 29 18 199 7 242 -17 49 -27 126 -90 158 -130 28 -34 31 -44 31
-111 1 -86 7 -96 101 -159 59 -41 59 -41 32 -48 -41 -11 -57 -28 -57 -60 0
-28 11 -42 65 -84 19 -15 19 -16 -30 -60 -61 -54 -123 -71 -200 -55 -104 22
-121 22 -152 6 -57 -29 -82 -140 -83 -362 0 -141 -14 -203 -65 -290 -28 -47
-201 -214 -223 -214 -10 0 -12 9 -7 38 4 28 2 42 -9 51 -64 53 -169 -233 -168
-461 0 -120 11 -153 67 -208 47 -46 56 -74 29 -84 -28 -11 -158 -6 -184 7 -38
19 -48 50 -59 187 -6 69 -23 191 -38 271 l-26 146 23 31 c64 87 50 272 -21
272 -37 0 -54 -56 -53 -174 l2 -109 -72 6 c-94 7 -175 34 -364 118 -247 111
-346 128 -425 75 -17 -12 -66 -64 -108 -116 -42 -53 -124 -139 -182 -193 -120
-111 -136 -140 -144 -258 -9 -117 -1 -141 58 -183 43 -32 48 -39 39 -56 -6
-11 -22 -23 -36 -26 -14 -4 -23 -11 -21 -18 3 -8 134 -11 478 -11 460 0 475 1
509 21 86 50 105 124 105 406 l0 208 85 -6 c47 -4 89 -10 93 -14 14 -12 55
-259 66 -399 16 -197 38 -224 186 -225 89 0 122 12 131 49 7 28 -11 60 -61
110 -62 62 -70 186 -25 373 22 93 77 232 91 232 12 0 11 -14 -7 -90 -17 -71
-15 -128 12 -310 31 -206 31 -208 76 -240 88 -64 258 -45 258 29 0 27 -46 79
-89 99 -78 37 -80 94 -12 380 17 73 34 159 37 190 4 36 19 84 42 131 l37 74 6
186 c4 102 12 208 18 235 25 104 42 114 159 90 82 -16 90 -16 146 0 70 21 148
93 184 168 42 91 33 110 -95 191 -77 50 -93 69 -93 116 0 36 11 44 43 32 18
-7 30 -6 43 3 17 13 15 20 -35 122 -60 125 -90 168 -131 189 -44 23 -104 19
-148 -9 -30 -19 -55 -25 -118 -27 -70 -4 -83 -1 -108 19 -43 34 -88 28 -232
-29 -130 -51 -174 -82 -174 -120 0 -21 31 -88 61 -131 27 -38 24 -56 -26 -156
-60 -120 -124 -205 -178 -236 -49 -29 -200 -57 -215 -41 -5 6 -5 75 -1 155 4
80 5 492 2 915 -5 789 -1 911 32 944 13 14 55 17 288 21 302 6 318 9 357 73
26 42 26 120 1 167 -18 35 -117 120 -367 315 -70 55 -161 127 -203 161 -42 33
-155 119 -251 191 -223 167 -263 202 -292 261 l-23 47 -5 527 c-5 514 -5 527
-26 555 -41 56 -55 58 -339 58 -375 0 -361 11 -357 -300 4 -309 -5 -355 -63
-309 -13 11 -81 66 -150 124 -70 58 -176 143 -235 190 -59 47 -185 148 -281
224 -196 158 -411 328 -543 431 -49 39 -125 99 -170 134 -45 35 -99 72 -121
82 -56 26 -131 24 -188 -4z m168 -21 c19 -8 92 -60 162 -116 71 -55 162 -127
203 -159 112 -88 735 -584 809 -644 35 -29 112 -92 170 -140 147 -122 205
-160 229 -153 37 12 42 46 42 312 l0 256 29 29 29 29 265 0 c146 0 273 -3 282
-6 8 -4 23 -21 33 -38 15 -28 18 -85 22 -551 4 -409 8 -525 18 -545 53 -98 80
-124 292 -283 118 -89 272 -207 341 -262 69 -55 186 -147 260 -205 178 -140
207 -166 231 -214 25 -49 20 -107 -13 -142 -35 -37 -103 -45 -356 -42 -222 3
-233 2 -260 -18 -55 -41 -55 -41 -50 -944 3 -454 2 -888 -2 -965 l-6 -140 -30
1 c-16 1 -123 6 -238 12 -226 12 -332 5 -453 -28 -111 -31 -130 -28 -186 31
-76 78 -92 123 -93 254 0 88 5 125 24 185 29 94 31 138 6 156 -25 18 -26 18
-66 -9 -120 -81 -188 -325 -144 -523 9 -44 39 -126 66 -183 27 -57 49 -111 49
-120 0 -8 -20 -56 -45 -106 -59 -116 -71 -184 -56 -309 24 -208 13 -274 -65
-372 -31 -39 -56 -82 -60 -102 -4 -20 -4 -119 -2 -222 4 -142 9 -194 21 -217
9 -17 15 -32 12 -34 -2 -2 -132 -3 -289 -1 l-286 3 0 1667 c0 1033 -4 1673
-10 1682 -8 13 -125 15 -939 18 -901 2 -931 2 -950 -17 -18 -18 -18 -61 -16
-1577 1 -858 0 -1607 -3 -1667 l-5 -107 -188 0 -188 0 19 33 c33 56 34 118 5
322 -14 104 -33 205 -42 223 -9 18 -34 48 -56 65 -89 72 -117 161 -127 407 -7
197 -13 224 -72 348 -22 45 -28 70 -23 90 3 15 37 92 75 172 85 180 108 249
121 369 22 199 -26 385 -133 513 -118 142 -308 169 -308 45 0 -17 14 -38 42
-64 126 -113 169 -178 189 -288 30 -159 -37 -395 -145 -512 -63 -70 -102 -74
-306 -31 -147 31 -407 35 -580 9 -74 -11 -137 -17 -140 -15 -6 6 -6 273 -2
1200 3 589 1 655 -14 693 -28 71 -43 75 -324 76 -160 1 -258 6 -282 14 -67 21
-95 86 -68 156 12 31 86 106 160 162 30 23 165 127 300 232 135 106 299 233
364 284 66 50 142 110 170 132 28 22 152 119 276 215 124 96 272 211 330 256
275 216 619 486 749 587 79 62 166 130 195 153 28 22 101 79 161 125 61 47
238 186 395 309 156 122 302 231 325 241 48 22 104 24 150 5z m859 -3313 c3
-65 5 -814 4 -1665 l-2 -1548 -53 0 -53 0 -2 1613 -3 1612 -804 3 c-586 1
-807 -1 -817 -9 -12 -10 -14 -275 -14 -1615 l0 -1604 -50 0 -50 0 0 1665 0
1665 919 0 919 0 6 -117z m-2629 -607 c89 -41 173 -156 216 -296 19 -61 23
-97 23 -190 -1 -148 -22 -225 -119 -440 -41 -91 -77 -177 -80 -191 -6 -26 3
-57 51 -169 25 -60 28 -79 35 -250 11 -262 41 -355 150 -459 l48 -46 26 -168
c46 -303 29 -397 -72 -397 -56 0 -66 34 -32 100 21 40 21 43 6 120 -16 77 -62
186 -89 207 -7 6 -47 25 -88 43 -41 18 -105 53 -142 79 -190 132 -206 146
-211 171 -8 39 -48 91 -95 125 -38 26 -54 30 -121 33 -65 3 -97 -2 -207 -33
-119 -34 -142 -38 -306 -44 -157 -5 -180 -8 -205 -27 -48 -35 -63 -103 -74
-329 -11 -218 -29 -336 -58 -375 -24 -33 -90 -54 -146 -46 -80 12 -85 64 -10
97 47 21 59 33 67 66 13 53 -63 357 -104 417 -12 17 -42 54 -68 81 -26 28 -50
62 -54 76 -9 41 -68 120 -116 157 -55 43 -103 42 -108 -1 -5 -45 33 -92 125
-153 82 -54 85 -57 79 -88 -7 -37 -91 -120 -240 -235 -110 -85 -156 -132 -227
-233 -74 -104 -137 -141 -219 -128 -31 4 -35 9 -38 37 -3 30 0 34 56 62 68 35
101 70 144 155 17 34 61 108 98 166 114 177 121 236 60 477 -52 202 -79 258
-144 298 -47 28 -55 30 -156 30 -101 0 -108 1 -143 28 -41 31 -67 74 -67 108
0 13 12 40 26 61 19 26 28 57 34 105 4 38 14 82 23 99 22 43 79 90 145 122 32
14 60 28 64 30 3 2 8 -7 10 -20 4 -31 30 -29 39 2 4 14 8 57 8 95 2 100 9 106
66 54 25 -24 53 -54 60 -69 11 -22 11 -28 -6 -49 -13 -15 -19 -39 -19 -70 0
-53 7 -66 36 -75 28 -9 54 22 61 73 3 23 8 41 12 41 15 0 73 -43 145 -110 49
-45 104 -84 143 -103 l64 -30 167 6 c125 4 208 13 327 35 88 17 204 36 258 42
143 18 352 8 522 -25 163 -32 210 -30 269 12 130 90 227 394 187 586 -7 31
-28 89 -47 127 -29 57 -49 81 -110 131 -41 33 -74 68 -74 78 0 46 66 54 145
17z m5679 -328 c14 -13 50 -71 81 -130 65 -128 55 -142 -31 -41 -56 66 -126
128 -173 153 -24 12 -24 13 -6 26 30 22 100 18 129 -8z m-404 3 c0 -5 -7 -26
-16 -47 -11 -27 -15 -58 -12 -104 6 -89 -7 -212 -27 -254 -35 -73 -89 -38
-215 138 -105 146 -105 146 25 203 55 24 116 50 135 57 41 16 110 20 110 7z
m-7610 -330 c71 -49 74 -64 14 -85 -26 -9 -49 -16 -51 -16 -1 0 -10 26 -19 58
-9 31 -19 63 -21 70 -9 22 21 12 77 -27z m292 -146 c-2 -44 -11 -62 -23 -44
-10 17 -12 83 -2 93 13 13 26 -13 25 -49z m7972 -66 c17 -15 -7 -64 -33 -67
-27 -4 -61 23 -61 50 0 33 65 44 94 17z m-7729 -835 c30 -20 110 -122 101
-131 -8 -8 -112 63 -137 95 -36 47 -15 69 36 36z m6546 -45 c17 -33 8 -165
-13 -186 -10 -9 -21 -14 -24 -10 -4 4 -7 44 -7 89 -1 117 16 158 44 107z
m-5165 -25 c36 -17 109 -92 100 -101 -3 -4 -43 11 -88 33 -77 36 -89 39 -174
39 -76 0 -95 -3 -113 -19 -44 -40 -16 -123 103 -300 100 -151 101 -201 7 -297
-36 -37 -65 -59 -79 -59 -37 0 -89 -27 -108 -55 -14 -21 -15 -30 -5 -52 l12
-26 -79 7 c-138 11 -207 43 -235 106 -10 22 -27 637 -19 650 2 3 70 8 150 12
125 5 161 11 237 36 119 39 120 40 193 41 40 1 77 -5 98 -15z m4460 -40 c64
-21 205 -79 412 -169 l32 -15 0 -188 c0 -273 -21 -367 -91 -402 -36 -19 -64
-20 -461 -23 l-423 -2 -3 30 c-2 21 -18 44 -53 77 -44 42 -49 50 -49 91 0 63
17 145 40 192 18 36 195 203 205 193 2 -2 -9 -24 -26 -50 -48 -74 -48 -95 11
-274 61 -187 77 -208 162 -218 76 -10 161 10 172 41 10 26 -21 67 -71 94 -58
31 -83 74 -83 144 0 88 13 114 109 206 128 124 160 198 107 248 -29 27 -89 43
-134 34 -19 -3 -54 -21 -79 -40 -25 -19 -47 -32 -50 -30 -6 6 63 70 85 79 35
14 113 7 188 -18z m-4426 -76 l85 -43 7 -75 c3 -41 12 -105 19 -142 16 -86 5
-125 -56 -206 -54 -72 -171 -199 -195 -212 -25 -14 -126 -22 -172 -15 -74 13
-59 58 25 74 93 17 178 114 185 211 5 68 -3 86 -108 250 -85 133 -99 164 -83
189 27 43 176 27 293 -31z m5703 30 c-3 -18 -21 -98 -41 -178 -25 -106 -35
-170 -36 -236 -1 -107 8 -125 80 -163 42 -23 49 -31 49 -56 0 -25 -5 -30 -35
-37 -73 -16 -172 13 -190 55 -12 28 -60 362 -60 415 0 38 4 44 78 105 43 35
91 78 108 95 39 41 55 41 47 0z m-1308 2 c8 -7 15 -22 15 -35 0 -30 -85 -140
-158 -203 -37 -32 -65 -65 -71 -85 -40 -131 -3 -264 78 -282 35 -7 66 -39 58
-59 -7 -19 -74 -29 -133 -20 -58 8 -89 36 -104 95 -6 24 -24 87 -40 140 -17
53 -30 111 -30 128 0 83 151 285 244 327 36 17 118 13 141 -6z m-4065 -248
c36 -22 85 -48 110 -58 25 -9 58 -26 74 -37 36 -25 80 -118 96 -202 12 -62 11
-66 -14 -109 -19 -32 -25 -53 -20 -71 l6 -25 -338 0 c-187 0 -350 -3 -364 -7
-20 -5 -15 4 30 48 71 69 158 171 199 232 50 74 54 99 31 208 -11 52 -20 111
-20 132 l0 38 73 -54 c40 -30 102 -72 137 -95z"/>
<path d="M644 4035 c-31 -48 17 -99 76 -80 61 19 41 105 -25 105 -26 0 -39 -6
-51 -25z m75 -19 c8 -10 8 -16 -3 -25 -18 -15 -46 -3 -46 20 0 22 32 26 49 5z"/>
<path d="M8570 4410 c-27 -27 -25 -55 7 -79 30 -24 58 -20 86 11 22 26 22 39
-3 66 -26 27 -64 28 -90 2z m60 -26 c11 -12 10 -18 -4 -32 -16 -16 -18 -16
-31 2 -11 14 -12 23 -4 33 15 17 24 16 39 -3z"/>
<path d="M5344 3911 c-30 -13 -64 -59 -64 -88 0 -32 26 -80 49 -93 11 -5 37
-10 59 -10 116 0 127 180 12 195 -19 3 -45 1 -56 -4z m89 -53 c22 -27 22 -49
-4 -82 -37 -47 -109 -23 -109 37 0 37 7 49 35 65 25 14 55 6 78 -20z"/>
</g>
</svg>

