<?xml version="1.0" standalone="no"?>
<!DOCTYPE svg PUBLIC "-//W3C//DTD SVG 20010904//EN"
 "http://www.w3.org/TR/2001/REC-SVG-20010904/DTD/svg10.dtd">
<svg version="1.0" xmlns="http://www.w3.org/2000/svg"
 width="945.000000pt" height="1024.000000pt" viewBox="0 0 945.000000 1024.000000"
 preserveAspectRatio="xMidYMid meet">

<g transform="translate(0.000000,1024.000000) scale(0.100000,-0.100000)"
fill="#000000" stroke="none">
<path d="M4240 7634 c-201 -24 -322 -56 -494 -129 -167 -72 -201 -78 -337 -64
-178 18 -233 -4 -404 -161 -129 -118 -174 -153 -291 -222 -58 -35 -177 -122
-267 -197 -89 -73 -209 -165 -267 -204 -198 -132 -304 -267 -332 -420 -16 -92
-6 -137 88 -389 111 -298 173 -406 333 -582 77 -84 143 -173 160 -215 15 -34
23 -38 39 -18 21 25 23 86 7 233 -15 143 -13 184 5 184 30 0 45 -314 21 -450
-6 -36 -13 -126 -16 -200 -6 -155 8 -217 58 -254 35 -26 108 -27 156 -2 119
62 261 274 325 486 67 221 69 387 11 720 -58 328 -58 479 1 765 42 199 90 351
156 485 51 103 73 137 127 191 96 96 151 102 151 15 -1 -60 -40 -161 -113
-294 -141 -254 -198 -388 -247 -576 -44 -174 -52 -279 -36 -507 8 -107 17
-275 21 -374 12 -338 58 -589 139 -760 50 -106 53 -99 -50 -110 l-61 -7 -8
186 c-10 259 -21 258 -86 -11 -22 -93 -42 -175 -45 -185 -3 -12 -25 -20 -77
-28 -112 -19 -412 -95 -532 -135 -119 -40 -348 -130 -490 -193 -155 -68 -385
-184 -385 -193 0 -14 1 -13 158 62 169 81 562 242 702 287 187 61 543 152 594
152 15 0 16 -7 10 -47 -3 -27 -10 -55 -14 -63 -5 -9 -46 -31 -92 -49 -154 -63
-338 -154 -338 -168 0 -9 33 3 98 36 123 62 286 131 308 131 14 0 15 -7 9 -47
-3 -27 -9 -57 -11 -68 -4 -14 -58 -46 -192 -112 -350 -172 -667 -392 -924
-642 -105 -101 -188 -196 -188 -215 0 -17 34 -1 96 46 70 53 382 263 490 329
195 120 670 379 696 379 4 0 8 -33 8 -74 l0 -73 -137 -110 c-192 -154 -360
-309 -485 -449 -113 -127 -250 -299 -276 -349 -14 -29 -14 -29 3 -15 10 8 32
36 49 61 101 150 461 523 640 664 49 39 114 89 144 113 29 24 55 42 56 40 2
-2 11 -54 20 -117 l17 -114 -199 -201 c-209 -210 -301 -311 -443 -486 -157
-193 -327 -436 -313 -449 3 -3 11 3 18 13 59 101 246 346 411 541 110 129 511
545 526 545 15 0 10 -37 -7 -51 -35 -29 -134 -159 -205 -269 -74 -116 -199
-353 -199 -380 0 -24 15 0 82 130 36 69 84 157 108 195 54 85 200 285 223 304
19 15 18 16 37 -59 12 -47 26 -70 41 -70 5 0 9 51 9 113 l0 113 39 38 c22 21
43 36 49 32 5 -3 12 -44 16 -91 l7 -86 -64 -87 c-105 -142 -186 -273 -336
-539 -65 -115 -241 -468 -241 -482 0 -23 16 -9 43 37 15 26 48 81 74 122 25
41 68 113 95 160 119 201 325 508 436 649 22 27 20 30 60 -71 l31 -77 -104
-203 c-108 -211 -174 -365 -206 -480 -22 -80 -23 -88 -6 -88 7 0 41 62 75 137
73 161 266 526 281 531 11 4 121 -211 121 -236 0 -8 -16 -65 -36 -126 -48
-148 -55 -243 -22 -306 21 -42 26 -45 62 -45 30 0 43 6 57 25 42 58 42 225 -1
363 -24 75 -25 113 -5 161 19 44 35 47 35 5 0 -81 91 -290 177 -405 59 -78 61
-83 67 -160 7 -80 21 -141 37 -158 4 -5 2 15 -6 45 -16 57 -20 149 -7 149 11
-1 171 -201 220 -277 96 -149 161 -300 200 -467 10 -44 23 -81 29 -83 24 -8
31 155 12 249 -6 29 -28 112 -50 184 -21 71 -39 134 -39 138 0 15 21 -7 82
-87 147 -189 207 -302 254 -472 15 -55 29 -102 31 -105 13 -16 23 40 23 130 0
146 12 330 20 330 28 0 81 -234 89 -395 l7 -130 8 79 c16 143 -10 301 -73 461
-30 75 -30 70 -5 245 22 146 35 203 44 193 13 -13 89 -239 115 -343 25 -99 39
-192 55 -345 8 -81 8 -74 5 60 -5 178 -25 276 -110 533 l-56 172 20 73 c31
113 67 211 77 214 11 4 139 -291 178 -407 62 -187 80 -381 51 -550 -29 -175
-96 -338 -232 -563 -36 -59 -63 -111 -59 -115 9 -9 22 8 92 121 82 131 130
232 174 364 109 329 70 642 -136 1081 l-55 116 32 71 c40 87 132 255 139 255
3 0 11 -42 18 -92 13 -101 34 -180 118 -445 100 -312 132 -483 121 -640 -6
-80 -9 -88 -70 -196 -70 -122 -97 -189 -97 -242 0 -71 66 -28 110 73 12 26 33
94 47 152 13 58 36 125 49 150 149 274 224 459 243 603 23 169 7 255 -93 491
-87 204 -102 248 -117 344 -12 82 -3 166 31 276 19 60 23 65 40 56 12 -6 20
-21 20 -35 0 -29 58 -164 107 -247 102 -174 184 -396 213 -580 18 -111 8 -372
-18 -466 -17 -62 -32 -87 -106 -181 -105 -134 -161 -221 -186 -294 -39 -112
-13 -129 66 -44 71 75 138 187 192 324 35 87 67 145 122 222 95 133 155 253
177 354 18 78 19 80 59 97 65 28 106 116 120 256 6 61 16 78 27 52 38 -89 77
-196 77 -215 0 -35 -44 -132 -123 -273 -69 -124 -100 -171 -210 -324 -59 -81
-73 -113 -35 -80 28 25 143 179 203 274 48 75 156 284 170 329 4 12 11 19 15
15 9 -10 105 -310 115 -361 7 -33 25 -56 25 -31 0 17 -42 174 -86 324 l-36
121 26 80 c22 72 51 233 58 333 l3 35 42 -61 c158 -230 369 -723 442 -1033 22
-91 31 -110 31 -64 0 36 -55 239 -105 388 -78 229 -211 505 -347 719 -63 99
-69 112 -66 155 l3 46 71 -95 c93 -125 191 -273 295 -443 113 -185 181 -281
202 -285 36 -7 8 82 -92 289 -122 252 -264 468 -439 666 -52 59 -75 95 -92
143 -12 36 -29 77 -37 93 -7 15 -11 27 -8 27 7 0 242 -207 252 -222 4 -7 8
-47 8 -88 0 -60 3 -75 15 -75 10 0 18 16 23 48 5 26 13 47 17 47 14 0 204
-221 303 -351 127 -168 261 -370 337 -509 35 -63 84 -151 110 -195 25 -44 53
-95 61 -113 15 -34 34 -45 24 -13 -10 32 -204 389 -258 476 -77 124 -244 361
-315 450 -35 44 -109 128 -163 187 -99 106 -99 107 -93 147 4 23 12 41 18 41
16 0 198 -187 289 -297 102 -124 158 -209 251 -383 43 -80 81 -147 83 -150 16
-15 -16 60 -72 175 -90 182 -211 346 -400 542 -145 151 -155 164 -155 200 0
21 4 43 8 49 13 21 451 -281 681 -470 112 -92 233 -198 362 -318 106 -99 149
-127 149 -97 0 28 -127 213 -211 309 -111 125 -288 301 -419 416 -110 96 -343
267 -470 345 -78 48 -88 58 -92 87 -3 22 0 32 9 32 25 0 320 -135 576 -263
l259 -130 52 -66 c29 -36 59 -76 67 -88 14 -23 29 -30 29 -14 0 5 -16 32 -36
61 -19 28 -33 54 -30 57 5 5 233 -119 327 -178 50 -32 85 -40 59 -15 -8 8
-112 69 -230 137 -151 85 -233 138 -275 178 -162 152 -289 239 -590 401 -47
25 -50 26 135 -35 238 -77 657 -162 682 -137 16 16 5 25 -90 80 -248 143 -625
297 -906 371 l-100 26 -22 105 c-13 58 -38 177 -55 265 l-32 160 11 275 c7
151 20 354 29 450 26 284 -1 475 -108 747 -48 123 -73 173 -189 383 -59 106
-87 179 -96 248 -13 103 52 105 148 4 98 -103 169 -247 232 -475 107 -380 121
-613 58 -937 -48 -245 -55 -312 -49 -444 11 -231 85 -447 216 -633 56 -80 131
-145 187 -163 47 -16 119 -8 146 16 62 56 68 149 32 474 l-5 45 16 -28 c21
-36 34 -31 64 26 13 26 75 107 138 179 194 224 237 299 356 618 78 210 87 240
87 306 0 169 -120 338 -349 489 -53 36 -159 116 -236 180 -77 64 -177 141
-222 171 -46 30 -120 79 -165 109 -46 30 -132 100 -193 155 -71 66 -132 112
-174 133 -69 34 -74 34 -296 26 l-100 -3 -165 66 c-281 114 -458 146 -715 132
-174 -10 -352 -10 -585 -2 -91 4 -181 4 -200 2z m500 -38 c85 1 236 3 335 5
252 5 404 -22 609 -107 61 -26 144 -58 185 -72 72 -25 75 -26 191 -14 182 18
236 -2 397 -152 106 -98 201 -169 326 -246 48 -29 136 -93 195 -143 138 -115
239 -192 332 -252 214 -139 322 -323 291 -497 -11 -62 -119 -357 -180 -492
-45 -99 -104 -184 -231 -331 -62 -72 -124 -147 -137 -167 -14 -21 -30 -38 -35
-38 -6 0 -7 17 -4 38 31 215 34 384 7 401 -69 43 -100 -192 -67 -503 23 -213
22 -366 -4 -415 -21 -43 -35 -51 -86 -51 -163 0 -380 351 -425 688 -13 99 -6
266 16 387 8 44 25 134 37 200 29 154 31 428 5 575 -70 389 -181 675 -313 807
-152 151 -244 84 -180 -132 9 -27 45 -102 82 -165 142 -245 254 -521 285 -700
7 -41 13 -133 13 -205 1 -135 -23 -475 -33 -475 -3 0 -14 32 -23 71 -35 146
-95 234 -193 285 -30 16 -55 32 -55 35 0 3 11 11 24 17 32 14 40 63 21 137
-26 101 -63 165 -141 242 -60 60 -90 80 -187 127 -93 44 -132 69 -192 126
-102 94 -142 114 -225 114 -78 -1 -130 -24 -183 -83 -130 -144 -139 -353 -27
-615 60 -138 122 -186 177 -134 26 25 26 24 13 -57 -19 -117 16 -172 45 -71
23 78 29 80 121 55 151 -41 285 -8 364 92 21 27 42 58 45 69 4 11 10 20 14 20
15 0 184 -102 225 -135 56 -45 101 -124 127 -220 30 -110 33 -387 5 -515 -29
-134 -133 -424 -169 -470 -10 -14 -41 -15 -232 -10 l-219 5 -8 45 c-5 25 -17
107 -28 182 -21 145 -53 255 -103 353 -38 76 -106 179 -155 236 -72 83 -219
276 -256 337 -50 83 -74 139 -106 253 -57 199 -63 378 -20 649 17 107 21 164
17 275 -5 156 -22 227 -84 350 -70 139 -119 178 -196 155 -55 -16 -99 -64
-147 -161 -85 -168 -106 -330 -74 -554 13 -90 19 -184 18 -305 0 -152 -4 -190
-26 -285 -54 -230 -122 -361 -305 -582 -155 -189 -166 -201 -159 -183 3 8 24
60 47 115 50 120 63 225 35 295 -23 58 -20 65 15 36 17 -14 40 -26 51 -26 48
0 125 120 179 281 38 111 50 252 29 340 -40 170 -166 288 -295 277 -71 -6
-127 -36 -224 -124 -57 -50 -110 -86 -160 -110 -42 -19 -92 -43 -111 -52 -62
-31 -177 -152 -210 -223 -57 -122 -59 -219 -6 -219 33 0 60 37 87 118 27 82
93 152 188 200 81 41 60 42 -24 2 -80 -38 -144 -108 -189 -205 -35 -77 -51
-94 -69 -76 -13 13 13 111 48 181 48 95 113 152 263 229 104 54 156 88 216
142 91 81 142 108 205 109 92 0 189 -78 233 -189 19 -47 22 -75 22 -181 1
-138 -14 -198 -79 -335 -35 -72 -45 -87 -82 -119 -21 -17 -24 -18 -47 -2 -15
9 -46 59 -76 120 -73 149 -104 192 -164 226 -70 41 -167 42 -244 4 -52 -26
-194 -150 -213 -186 -23 -43 4 -27 85 51 110 105 170 135 264 129 48 -2 78
-10 105 -27 46 -28 42 -40 -5 -15 -21 12 -55 18 -93 19 -79 0 -143 -32 -256
-128 -65 -56 -106 -82 -168 -107 -58 -23 -99 -48 -137 -83 -73 -66 -108 -135
-138 -270 -14 -59 -23 -12 -32 155 -17 329 -9 452 41 619 46 151 127 337 224
512 130 234 159 348 104 409 -39 43 -139 -9 -218 -114 -93 -123 -163 -295
-229 -558 -84 -333 -86 -538 -10 -924 50 -253 43 -440 -23 -650 -90 -287 -282
-515 -405 -480 -73 21 -90 120 -64 387 35 363 8 591 -65 546 -16 -10 -19 -141
-6 -304 l8 -100 -23 29 c-13 16 -50 61 -83 99 -140 162 -227 277 -269 357 -56
107 -205 506 -213 569 -3 26 0 72 7 104 29 143 123 256 330 400 121 83 190
137 336 260 38 32 118 88 177 124 121 73 211 142 337 258 48 44 109 89 140
104 50 23 64 25 150 22 228 -11 232 -10 372 52 149 66 265 102 398 122 146 23
165 24 320 17 80 -4 215 -6 300 -6z m108 -199 c63 -60 117 -184 141 -321 17
-92 13 -229 -11 -397 -70 -502 11 -804 310 -1158 81 -96 165 -211 215 -294 51
-84 85 -200 121 -415 l32 -192 -31 -4 c-16 -3 -77 -10 -135 -16 -58 -6 -123
-16 -145 -22 l-40 -12 75 -7 c143 -14 146 -26 7 -27 -120 -1 -148 -4 -135 -17
3 -3 56 -7 119 -8 123 -3 205 -26 195 -53 -4 -10 2 -14 19 -14 13 0 46 -5 74
-11 36 -7 50 -16 54 -30 4 -16 2 -19 -11 -14 -97 40 -172 55 -172 37 0 -5 10
-14 23 -21 24 -12 24 -12 -78 20 -53 16 -65 23 -50 29 10 4 -41 10 -114 13
-125 7 -152 5 -139 -8 3 -3 57 -17 119 -30 115 -24 312 -84 406 -125 37 -16
53 -29 58 -47 3 -14 4 -27 1 -30 -2 -2 -30 9 -63 25 -136 69 -253 107 -253 83
0 -13 23 -29 170 -116 69 -40 135 -83 148 -94 24 -23 30 -61 10 -61 -7 0 -82
52 -166 115 -133 99 -246 163 -261 149 -7 -7 50 -63 104 -102 97 -69 315 -256
315 -269 0 -22 -14 -15 -60 33 -123 126 -500 381 -500 337 0 -4 59 -62 131
-128 125 -114 252 -247 332 -346 l36 -45 -42 -42 c-86 -84 -193 -105 -296 -57
-29 14 -92 56 -140 94 -103 82 -170 125 -271 176 -114 57 -151 97 -164 182 -8
53 15 113 55 147 16 14 55 34 86 46 87 32 136 64 187 121 38 42 46 58 44 83
-3 34 2 33 -149 26 -57 -2 -84 11 -105 52 -22 42 -11 90 27 122 55 47 106 24
87 -38 -17 -53 -4 -81 43 -100 117 -47 226 76 204 231 -16 111 -71 187 -169
234 -93 44 -145 51 -383 47 l-218 -3 -65 -31 c-126 -60 -185 -151 -185 -290 0
-70 3 -85 27 -121 34 -52 86 -77 143 -69 61 10 79 34 71 92 -7 55 4 74 46 74
74 0 108 -114 52 -175 -24 -26 -29 -27 -82 -20 -31 4 -74 8 -96 9 -76 2 -74
-56 5 -139 47 -50 63 -59 212 -122 47 -20 83 -61 98 -112 9 -31 8 -49 -5 -95
-19 -65 -42 -85 -191 -166 -51 -27 -151 -93 -221 -146 -71 -54 -147 -105 -169
-115 -72 -33 -201 -19 -262 29 l-23 17 46 65 c76 110 228 281 344 389 147 138
146 149 -6 60 -44 -26 -107 -69 -138 -94 -31 -26 -59 -45 -62 -42 -4 4 105
102 196 176 47 39 -9 24 -102 -27 -80 -43 -142 -88 -331 -241 -55 -44 -70 -52
-78 -40 -29 46 4 77 241 224 132 83 230 131 323 161 31 10 57 21 57 26 0 13
-14 10 -101 -22 -44 -16 -84 -29 -88 -28 -12 2 -323 -146 -384 -183 -26 -16
-49 -29 -52 -29 -13 0 -3 49 13 62 27 25 283 147 545 260 26 11 47 25 47 31 0
18 -265 -18 -419 -57 -123 -32 -136 -31 -118 4 11 22 25 27 112 42 54 10 104
20 110 22 21 9 -94 6 -145 -4 -29 -6 -55 -8 -58 -6 -2 3 -1 14 3 25 6 20 13
21 148 21 176 0 279 9 274 24 -6 20 -140 46 -270 53 l-128 6 6 46 c59 431 107
538 391 872 87 102 178 228 209 290 40 77 93 244 117 362 27 138 29 375 4 534
-34 217 -16 383 59 539 39 82 75 128 120 156 38 23 70 17 113 -25z m616 -747
c23 -11 79 -54 125 -95 64 -57 113 -90 198 -132 137 -68 181 -105 245 -202 52
-80 81 -161 76 -213 -2 -28 -7 -34 -31 -36 -24 -3 -42 11 -130 102 -116 119
-177 156 -262 156 -127 0 -193 -52 -267 -210 -55 -115 -80 -150 -113 -150 -29
0 -56 32 -99 117 -79 159 -106 332 -70 453 52 176 203 272 328 210z m300 -467
c33 -12 74 -41 123 -86 78 -74 100 -111 32 -55 -156 128 -234 155 -348 122
-17 -5 -22 -4 -17 4 20 32 138 40 210 15z m-1954 -43 c0 -5 -6 -13 -14 -17
-43 -26 -47 -94 -7 -134 61 -60 161 -26 161 56 0 40 9 44 36 14 27 -30 26
-108 -2 -146 -27 -37 -99 -73 -145 -73 -99 0 -179 77 -179 172 0 56 21 85 84
114 56 26 66 28 66 14z m1938 -19 c67 -34 88 -76 72 -145 -31 -136 -238 -173
-317 -56 -27 39 -30 97 -8 140 19 37 44 40 38 6 -6 -28 20 -82 46 -96 11 -5
37 -10 59 -10 69 0 111 74 78 138 -25 49 -23 51 32 23z m-1861 3 c24 -7 46
-55 36 -82 -19 -53 -76 -69 -113 -32 -33 33 -23 81 25 108 24 13 24 13 52 6z
m1787 -15 c30 -24 34 -63 10 -97 -20 -29 -76 -30 -104 -2 -41 41 -12 120 44
120 13 0 35 -9 50 -21z m-2039 -146 c3 -18 25 -53 51 -82 25 -28 43 -51 39
-51 -32 0 -155 122 -155 153 0 6 12 24 28 40 l27 29 3 -29 c1 -15 5 -42 7 -60z
m2263 54 l32 -33 -28 -40 c-96 -133 -234 -174 -395 -118 -58 20 -86 14 -110
-23 l-18 -28 6 30 c3 17 18 61 32 99 l26 69 18 -39 c41 -83 95 -118 185 -117
68 1 105 16 150 65 43 45 54 70 56 123 1 25 5 45 8 45 3 0 21 -15 38 -33z
m-2334 -77 c25 -57 103 -123 170 -144 68 -22 168 -22 238 -1 73 21 96 19 129
-14 67 -67 34 -170 -199 -611 -72 -138 -126 -280 -137 -360 -4 -31 4 -13 25
55 29 93 93 245 103 245 3 0 -6 -35 -19 -77 -13 -43 -36 -152 -52 -243 -27
-164 -28 -165 -55 -168 -20 -3 -27 1 -28 15 -1 14 -2 15 -6 2 -3 -14 -31 -17
-186 -22 -100 -3 -189 -7 -197 -9 -34 -8 -148 282 -186 478 -26 127 -25 411 0
509 44 168 112 251 271 332 55 27 103 51 106 51 3 1 13 -16 23 -38z m509 -33
c15 -34 27 -65 27 -68 0 -3 -21 -4 -47 -2 -27 2 -70 -2 -98 -11 -29 -8 -42
-10 -31 -3 52 32 96 81 102 113 3 19 9 34 13 34 3 0 18 -29 34 -63z m2937
-494 c-1 -89 -23 -310 -33 -319 -10 -10 -20 149 -14 230 5 89 24 176 38 176 5
0 9 -39 9 -87z m-2056 -317 c58 -8 143 -44 195 -83 76 -58 113 -231 66 -310
-22 -38 -69 -63 -118 -63 -51 0 -63 19 -47 77 13 45 13 47 -14 70 -93 79 -221
-73 -151 -180 34 -53 83 -66 188 -52 68 9 73 -1 28 -56 -40 -48 -96 -85 -183
-120 -42 -17 -89 -45 -110 -67 l-38 -36 0 201 c0 111 -3 208 -6 217 -17 44
-24 -15 -24 -205 0 -115 -2 -209 -5 -209 -3 0 -19 16 -37 35 -21 23 -62 47
-115 69 -99 41 -136 66 -174 119 -39 54 -38 71 4 63 17 -3 59 -9 92 -12 56 -6
63 -4 92 20 42 35 57 81 44 136 -20 92 -109 134 -166 80 -23 -22 -25 -29 -19
-76 4 -34 2 -54 -5 -59 -24 -14 -104 -7 -130 13 -75 55 -65 235 19 326 50 54
135 97 208 105 71 8 335 5 406 -3z m1386 -50 c0 -37 -34 -186 -57 -249 -29
-83 -78 -183 -93 -192 -29 -18 -23 16 22 116 27 61 64 162 81 225 28 101 47
141 47 100z m34 -157 c4 -29 21 -113 37 -187 17 -73 29 -135 27 -137 -7 -7
-203 33 -201 41 1 5 18 44 37 87 19 44 44 119 57 167 13 49 26 87 30 85 3 -3
9 -28 13 -56z m-3275 -260 l1 -56 -37 -6 c-20 -4 -39 -4 -42 -2 -4 5 31 173
52 250 11 40 11 39 18 -45 4 -47 7 -110 8 -141z m685 -53 c-4 -9 -30 -16 -77
-21 -40 -3 -128 -15 -196 -26 -131 -21 -126 -21 -152 24 -7 12 -6 19 3 22 19
7 112 11 280 13 123 2 146 0 142 -12z m261 4 c19 -5 -17 -8 -97 -9 -80 -1
-128 3 -128 9 0 12 179 12 225 0z m1623 -14 c4 -20 8 -20 -138 1 l-55 8 60 6
c98 10 129 7 133 -15z m386 18 c52 -8 56 -17 23 -58 l-23 -29 -175 24 c-164
23 -174 26 -177 47 -3 22 -3 22 151 22 85 0 175 -3 201 -6z m113 -20 c5 -14
-63 -91 -72 -82 -10 9 45 100 58 95 6 -2 12 -8 14 -13z m-2853 -25 c10 -17 16
-32 14 -34 -11 -10 -194 -52 -201 -46 -4 4 -5 26 -1 49 7 44 7 44 99 55 66 8
71 7 89 -24z m3037 10 c42 -6 82 -15 88 -19 13 -8 46 -138 38 -147 -3 -2 -61
13 -129 35 -67 22 -140 43 -160 46 -21 4 -38 9 -38 12 0 3 14 26 32 51 29 39
36 44 63 39 16 -3 64 -10 106 -17z m-3251 -58 l0 -48 -57 -16 c-31 -9 -58 -15
-60 -13 -9 9 20 102 34 114 9 6 32 12 50 12 33 0 33 0 33 -49z m670 27 c0 -28
-21 -37 -164 -69 l-149 -33 -24 28 c-41 48 -41 48 127 70 139 18 210 20 210 4z
m2851 -32 c115 -31 336 -108 472 -165 144 -61 417 -199 417 -212 0 -21 -219
19 -455 82 -144 39 -491 151 -526 169 -11 6 -21 32 -28 73 -15 84 -14 89 7 83
9 -2 60 -16 113 -30z m-934 9 c9 -25 -3 -28 -59 -15 -85 20 -90 29 -15 30 52
0 69 -4 74 -15z m168 -10 c182 -28 185 -29 148 -73 l-18 -21 -120 32 c-131 35
-145 41 -145 63 0 18 11 17 135 -1z m-2477 -40 c26 -41 28 -55 7 -55 -9 0 -69
-18 -134 -40 -65 -22 -122 -40 -127 -40 -5 0 -7 26 -4 57 l5 57 105 27 c58 15
110 27 115 28 6 0 20 -15 33 -34z m367 -17 c-11 -35 -23 -42 -122 -73 l-93
-29 -25 24 c-14 13 -24 29 -22 34 4 11 202 63 245 65 20 1 22 -3 17 -21z m424
18 c-2 -2 -49 -21 -104 -41 -55 -21 -149 -63 -210 -94 -60 -31 -114 -57 -118
-60 -5 -2 -7 7 -5 20 4 31 38 47 248 120 147 51 202 68 189 55z m1911 -6 c0
-5 -5 -10 -11 -10 -5 0 -7 5 -4 10 3 6 8 10 11 10 2 0 4 -4 4 -10z m-2050 -4
c0 -2 -37 -17 -82 -32 -46 -15 -107 -37 -137 -50 -60 -27 -61 -27 -61 -16 1
23 30 37 141 67 136 36 139 37 139 31z m2179 -23 l74 -17 23 -51 c17 -35 20
-51 11 -53 -13 -2 -244 71 -254 82 -9 9 38 56 56 56 9 0 49 -8 90 -17z m-3109
-17 c0 -7 -3 -34 -6 -59 -7 -46 -7 -46 -72 -72 -35 -14 -66 -24 -69 -22 -2 3
1 34 7 69 l12 65 46 16 c60 19 82 20 82 3z m2788 -28 c39 -11 72 -24 72 -27 0
-3 -15 -23 -33 -45 l-33 -38 -61 31 c-69 34 -68 33 -78 80 l-7 34 33 -7 c19
-3 67 -16 107 -28z m-2434 -17 c33 -34 29 -45 -22 -61 -20 -7 -104 -39 -185
-72 -81 -33 -150 -58 -153 -56 -7 8 13 99 25 111 8 8 283 106 302 107 3 0 18
-13 33 -29z m2219 13 c26 -9 47 -20 47 -25 0 -7 -98 25 -109 37 -9 8 17 4 62
-12z m725 -4 c37 -11 73 -24 81 -29 7 -5 16 -32 19 -60 l5 -51 -69 26 c-38 14
-71 27 -73 29 -13 14 -48 105 -40 105 6 0 41 -9 77 -20z m-2678 -19 c0 -23
-11 -32 -79 -60 l-54 -23 -20 21 c-12 11 -19 22 -16 24 5 5 150 55 162 56 4 1
7 -7 7 -18z m2381 -50 c52 -21 134 -58 184 -83 l90 -44 17 -62 c9 -34 19 -75
23 -93 l7 -30 -40 25 c-21 13 -126 70 -233 126 -107 56 -198 106 -203 111 -7
6 47 89 58 89 2 0 45 -17 97 -39z m-469 -38 c118 -61 150 -84 135 -99 -5 -5
-221 119 -262 150 -41 31 0 14 127 -51z m1019 11 c250 -112 441 -224 568 -333
29 -25 65 -56 80 -69 l26 -22 -30 11 c-16 5 -106 50 -200 98 -93 49 -259 128
-367 176 l-198 87 0 33 c0 19 -3 40 -6 49 -10 26 18 19 127 -30z m-378 6 c59
-19 90 -41 76 -54 -2 -2 -42 16 -89 41 -91 47 -91 48 13 13z m-2747 -1 c18
-20 18 -21 -1 -35 -10 -8 -23 -14 -27 -14 -5 0 -81 -39 -168 -86 -91 -49 -166
-84 -175 -80 -9 3 -15 0 -15 -8 0 -14 -67 -62 -75 -54 -3 2 1 32 7 66 l11 61
96 40 c114 48 314 129 322 130 3 1 14 -8 25 -20z m170 -23 c-3 -13 -20 -33
-38 -45 l-33 -20 -13 25 c-8 14 -12 27 -10 29 8 8 93 42 97 39 2 -2 1 -14 -3
-28z m-626 -50 c-11 -55 -13 -57 -70 -86 -33 -16 -61 -26 -64 -22 -2 4 -1 32
2 62 l7 54 65 27 c36 15 66 26 68 24 2 -2 -1 -29 -8 -59z m1055 41 c-48 -35
-214 -188 -294 -271 -40 -42 -77 -76 -81 -76 -4 0 -11 12 -15 27 -5 22 -2 32
18 48 13 11 58 48 98 82 41 34 90 73 109 86 19 13 68 47 109 75 73 51 115 73
56 29z m1743 -41 c-4 -28 -21 -30 -51 -6 -16 13 -27 31 -27 46 l0 25 40 -22
c29 -17 40 -29 38 -43z m-442 -22 c139 -99 301 -238 309 -264 6 -19 -13 -70
-26 -70 -4 0 -28 26 -52 58 -24 31 -108 119 -186 195 -78 75 -137 137 -133
137 5 0 45 -25 88 -56z m1042 25 c34 -15 42 -23 42 -44 0 -14 -3 -25 -6 -25
-12 0 -100 54 -111 68 -31 37 -11 38 75 1z m-2888 -34 c0 -15 -20 -35 -67 -68
-74 -51 -218 -164 -307 -241 -31 -27 -59 -46 -62 -43 -4 3 -3 47 1 97 l7 91
42 27 c22 14 113 63 201 109 144 74 161 81 173 66 6 -9 12 -26 12 -38z m539
-52 c-104 -106 -167 -182 -247 -296 l-40 -57 -32 40 -32 40 44 48 c86 96 371
328 408 331 2 1 -43 -47 -101 -106z m-310 36 c-83 -58 -99 -66 -99 -50 0 11
16 22 100 69 83 47 83 38 -1 -19z m-893 25 c-3 -9 -6 -35 -6 -60 l0 -44 -92
-46 c-344 -173 -834 -469 -1060 -641 -32 -24 -58 -41 -58 -38 0 15 151 163
267 261 237 202 483 362 803 521 133 65 156 73 146 47z m3058 -23 c46 -34 134
-139 109 -130 -5 2 -49 29 -96 59 -64 40 -87 60 -87 76 0 20 8 34 18 34 3 0
28 -17 56 -39z m-2294 -6 c0 -33 -36 -53 -43 -25 -5 20 15 50 34 50 5 0 9 -11
9 -25z m2569 -97 c100 -55 178 -103 182 -114 4 -10 8 -34 8 -53 l1 -35 -27 25
c-54 49 -199 157 -300 222 -57 37 -103 69 -103 72 0 9 60 -20 239 -117z m-411
100 c14 -14 16 -58 3 -58 -12 0 -41 40 -41 57 0 16 22 17 38 1z m672 -135 c0
-46 -4 -83 -8 -83 -21 0 -51 50 -65 110 -9 36 -20 75 -23 88 l-7 24 51 -29 52
-28 0 -82z m-830 77 c73 -54 96 -77 87 -86 -5 -5 -167 123 -167 132 0 10 17 0
80 -46z m-2080 7 c0 -19 -19 -37 -87 -82 -111 -73 -278 -198 -320 -237 -28
-28 -62 -37 -45 -13 29 42 421 355 445 355 4 0 7 -11 7 -23z m1175 -16 c24
-55 59 -85 138 -121 77 -35 152 -79 216 -127 58 -43 41 -42 -33 3 -33 20 -100
50 -150 67 -82 29 -102 32 -206 32 -106 -1 -123 -4 -220 -37 -125 -44 -109
-25 46 51 103 51 158 98 170 146 9 35 18 31 39 -14z m1246 -53 c105 -76 117
-88 146 -148 49 -98 43 -109 -24 -44 -32 30 -104 94 -160 141 -77 64 -103 92
-103 109 0 14 6 24 14 24 7 0 65 -37 127 -82z m-2971 65 c0 -3 -5 -35 -11 -70
-10 -59 -14 -66 -54 -93 -24 -17 -46 -30 -49 -30 -3 0 -6 33 -6 73 l0 73 53
26 c55 28 67 32 67 21z m626 -38 c-3 -8 -10 -15 -16 -15 -14 0 -12 37 3 43 15
5 21 -8 13 -28z m2164 -16 c0 -10 -4 -20 -9 -23 -15 -9 -31 18 -24 42 4 18 8
20 19 11 8 -6 14 -20 14 -30z m417 -75 c62 -46 130 -100 152 -120 38 -33 41
-40 41 -87 l0 -51 -52 50 c-55 52 -149 132 -201 171 -29 21 -107 129 -107 147
0 11 29 -9 167 -110z m410 29 c249 -161 482 -352 695 -569 156 -160 264 -290
307 -371 22 -42 -7 -23 -106 70 -179 169 -326 292 -518 436 -104 78 -203 151
-220 162 -16 11 -53 37 -82 57 -28 20 -85 58 -127 85 l-76 48 0 79 c0 44 2 80
4 80 3 0 58 -34 123 -77z m-3047 28 c0 -9 -45 -57 -99 -106 -83 -73 -206 -207
-320 -345 -17 -21 -22 -23 -30 -10 -12 17 -25 109 -19 136 6 35 439 361 461
347 4 -2 7 -12 7 -22z m2304 -23 c117 -90 278 -246 302 -292 6 -11 14 -41 18
-65 l7 -44 -88 93 c-48 52 -115 119 -148 150 -33 31 -81 76 -108 101 -37 35
-46 49 -41 67 4 12 9 22 11 22 3 0 24 -14 47 -32z m-2232 -18 c3 -17 1 -33 -4
-36 -12 -8 -14 -5 -23 34 -5 25 -3 32 8 32 9 0 17 -12 19 -30z m2128 -11 c0
-10 -4 -19 -9 -19 -12 0 -23 29 -15 41 8 14 24 0 24 -22z m-2698 -91 l-5 -102
-41 -37 c-22 -21 -42 -36 -44 -34 -2 2 1 54 8 117 10 104 13 115 38 135 46 39
49 32 44 -79z m522 64 c6 -25 -13 -47 -219 -255 -167 -169 -227 -223 -232
-212 -8 24 7 50 82 145 83 103 342 363 354 355 5 -3 12 -18 15 -33z m2335 -99
c63 -60 151 -149 197 -200 70 -79 83 -99 89 -139 3 -25 5 -48 2 -50 -2 -3 -42
42 -88 98 -46 57 -139 162 -206 235 -108 115 -142 163 -115 163 4 0 59 -48
121 -107z m-172 63 c-4 -9 -11 -16 -17 -16 -11 0 -14 33 -3 44 11 10 26 -11
20 -28z m-2797 -117 c-7 -80 -16 -129 -25 -138 -8 -8 -17 -13 -19 -10 -4 4
-36 194 -36 213 0 7 84 65 88 61 2 -2 -2 -58 -8 -126z m708 91 c12 -33 -1 -41
-18 -11 -12 24 -13 54 -1 47 5 -3 14 -19 19 -36z m2773 30 c24 -14 28 -100 4
-100 -15 0 -21 17 -28 78 -4 36 -4 36 24 22z m-1634 -10 c58 -14 153 -50 153
-59 0 -12 -263 -34 -322 -27 -109 14 -188 28 -193 36 -4 7 93 41 150 53 39 9
170 6 212 -3z m1067 -97 c141 -149 206 -224 278 -319 75 -101 77 -106 58 -239
-12 -85 -61 -285 -69 -285 -14 0 -122 297 -121 333 1 111 -75 304 -184 470
-48 73 -70 127 -51 127 3 0 43 -39 89 -87z m-2245 42 c13 -36 12 -36 -41 -98
-92 -105 -222 -277 -296 -391 l-70 -109 -15 29 c-8 16 -22 53 -32 82 -20 63
-24 57 97 192 83 94 325 330 338 330 3 0 12 -16 19 -35z m2105 17 c6 -11 -21
-72 -33 -72 -19 0 -21 19 -4 49 18 31 28 37 37 23z m-1312 -43 c28 -15 181
-39 253 -39 33 0 118 7 189 16 107 14 136 14 164 4 34 -12 112 -57 161 -92
l23 -16 -28 -69 c-27 -64 -29 -77 -29 -208 0 -161 9 -196 100 -395 94 -205
122 -318 112 -459 -12 -160 -57 -297 -166 -501 l-66 -124 -6 124 c-9 182 -32
287 -134 606 -74 229 -101 339 -110 439 l-7 70 52 70 c82 110 110 191 78 223
-49 49 -125 -64 -144 -214 -5 -46 -18 -75 -63 -144 -31 -48 -72 -124 -91 -169
-19 -44 -39 -79 -45 -78 -15 5 -53 125 -66 208 -14 90 -7 167 24 260 13 38 20
72 16 75 -22 13 -109 -152 -140 -266 -14 -51 -22 -120 -26 -216 -6 -149 4
-229 48 -379 l20 -70 -20 -100 c-10 -55 -25 -142 -32 -192 -6 -51 -15 -93 -18
-93 -3 0 -23 33 -44 74 -21 40 -65 116 -98 167 -76 116 -219 404 -219 439 0
29 80 192 97 197 6 2 14 -6 18 -19 12 -43 88 -198 97 -198 5 0 -1 18 -12 40
-27 54 -80 197 -80 218 0 9 22 55 49 102 66 113 94 200 89 267 -12 140 -130
115 -172 -37 -19 -66 -22 -208 -7 -273 8 -34 4 -47 -40 -135 -28 -53 -54 -98
-58 -100 -5 -1 -12 12 -15 30 -56 262 -46 527 28 692 14 33 24 61 22 64 -13
12 -35 -13 -80 -92 -70 -125 -117 -239 -208 -508 -44 -132 -84 -236 -88 -231
-13 13 -49 172 -60 266 l-11 87 50 59 c65 78 103 161 104 224 2 122 -110 83
-149 -52 -9 -31 -19 -91 -22 -134 l-5 -78 -67 -62 c-37 -34 -82 -70 -99 -80
-29 -17 -32 -17 -38 -1 -7 20 4 55 69 204 80 183 191 397 232 447 1 1 28 -11
60 -27 86 -44 172 -42 280 5 l79 34 45 -40 c49 -46 174 -108 267 -134 33 -9
114 -19 180 -22 101 -4 134 -2 210 16 102 25 238 87 274 125 31 33 21 44 -16
18 -15 -11 -56 -33 -90 -50 -194 -98 -444 -107 -644 -23 -75 31 -199 110 -199
126 0 9 71 60 160 114 41 25 36 24 62 10z m1395 -71 c74 -108 132 -230 159
-336 13 -52 24 -100 24 -106 0 -6 -32 45 -71 114 -38 69 -101 171 -139 228
l-69 103 17 34 c9 19 20 35 23 35 4 0 29 -33 56 -72z m-2083 25 c21 -23 31
-42 26 -47 -6 -5 -11 -8 -13 -5 -2 2 -15 19 -30 37 -25 31 -34 52 -22 52 3 0
20 -17 39 -37z m1946 -17 c0 -21 -77 -86 -128 -108 -35 -16 -59 -19 -105 -15
-79 7 -91 22 -18 23 70 0 149 36 200 88 33 34 51 38 51 12z m762 -23 c-10 -28
-10 -28 -11 12 -1 28 2 36 10 28 8 -8 8 -19 1 -40z m-2744 -2 c18 -22 32 -43
32 -46 0 -4 -23 -45 -50 -92 -67 -112 -128 -236 -175 -353 -21 -52 -42 -99
-46 -104 -29 -32 8 226 47 336 41 112 136 298 153 298 4 0 22 -18 39 -39z
m-629 -13 c0 -7 -21 -30 -45 -52 -34 -30 -44 -35 -44 -21 0 10 17 33 38 51 40
36 53 41 51 22z m2726 -121 c44 -67 110 -183 148 -257 64 -127 68 -138 62
-185 -17 -138 -57 -267 -92 -295 -46 -36 -50 -28 -55 83 -3 80 -9 111 -26 144
-36 69 -94 85 -132 36 -33 -42 -25 -143 16 -209 26 -43 73 -85 106 -96 17 -6
-4 -91 -45 -195 -30 -73 -164 -289 -174 -280 -2 2 2 28 9 58 20 86 16 386 -6
489 -34 157 -101 322 -215 528 -60 109 -106 211 -98 219 3 2 33 -6 68 -18 114
-38 222 -15 298 65 19 20 40 36 45 36 6 0 47 -55 91 -123z m-1951 88 c30 -14
73 -26 102 -27 29 -2 50 -7 47 -12 -17 -27 -213 23 -213 54 0 14 7 13 64 -15z
m2469 -117 c155 -190 275 -374 376 -575 51 -102 103 -232 98 -246 -3 -10 -91
123 -167 253 -59 103 -241 371 -304 450 -29 36 -60 76 -68 90 -16 24 -35 130
-25 130 3 0 44 -46 90 -102z m-3367 25 c-5 -12 -10 -13 -18 -5 -8 8 -8 15 3
28 15 18 25 4 15 -23z m538 -20 c-101 -156 -128 -199 -171 -273 -48 -81 -73
-107 -73 -77 0 16 164 270 217 335 39 47 54 56 27 15z m-537 -60 c-3 -10 -5
-2 -5 17 0 19 2 27 5 18 2 -10 2 -26 0 -35z m539 -33 c-39 -121 -56 -223 -57
-334 -2 -129 -6 -138 -52 -103 -33 25 -107 116 -107 132 0 8 181 312 213 358
10 16 21 27 23 25 2 -2 -7 -37 -20 -78z m-359 -12 c-3 -8 -6 -5 -6 6 -1 11 2
17 5 13 3 -3 4 -12 1 -19z m681 -35 c2 -18 -6 -53 -17 -78 -26 -58 -90 -155
-103 -155 -12 0 -3 83 18 157 27 96 95 147 102 76z m1182 -33 c-10 -36 -63
-121 -86 -141 -14 -11 -15 -8 -9 27 10 53 54 153 74 164 23 12 32 -10 21 -50z
m-1880 25 c0 -15 -34 -69 -93 -147 -51 -68 -146 -205 -211 -305 -66 -101 -121
-181 -124 -179 -4 5 18 45 141 251 49 83 115 186 145 230 130 188 142 200 142
150z m1215 5 c15 -16 17 -32 13 -92 -5 -61 -13 -86 -59 -175 -35 -70 -56 -100
-63 -93 -5 5 -12 50 -14 99 -5 104 21 209 62 254 30 32 37 33 61 7z m-296 -57
c-21 -91 -16 -328 9 -443 11 -52 25 -108 31 -123 9 -22 6 -44 -16 -115 -23
-77 -26 -105 -27 -244 -1 -87 -3 -158 -6 -158 -13 0 -159 236 -203 329 l-50
104 38 116 c96 296 218 611 231 598 3 -3 0 -32 -7 -64z m563 -403 c8 -25 25
-69 38 -97 l22 -53 -35 -97 c-20 -54 -41 -117 -48 -141 -7 -23 -16 -39 -20
-35 -18 20 -52 207 -57 309 -5 127 7 211 46 329 l27 80 6 -125 c4 -69 13 -145
21 -170z m-1382 172 c0 -10 -19 -52 -42 -93 -24 -42 -83 -155 -132 -252 -50
-97 -91 -175 -93 -173 -6 6 78 199 137 316 108 215 130 249 130 202z m94 -62
c21 -28 51 -58 67 -67 34 -20 34 -22 14 -71 -19 -43 -15 -46 -83 83 -58 112
-55 105 -45 105 5 0 26 -23 47 -50z m2467 40 c36 -20 61 -88 67 -182 4 -74 2
-88 -10 -88 -46 0 -115 99 -124 176 -5 41 -2 54 16 77 24 31 24 31 51 17z
m-2097 -118 c9 -62 28 -151 41 -198 l25 -85 -19 -77 c-10 -42 -22 -94 -25
-115 -4 -22 -11 -35 -17 -31 -33 20 -161 250 -187 334 -39 131 -40 130 29 175
33 22 76 57 96 77 20 21 38 37 39 35 1 -1 9 -53 18 -115z m-278 -269 c24 -86
26 -244 4 -287 -23 -44 -45 -54 -69 -31 -33 29 -44 88 -31 162 14 81 58 223
69 223 5 0 17 -30 27 -67z m719 -60 c29 -77 67 -149 184 -345 60 -102 123
-211 139 -244 l30 -59 -11 -197 c-6 -109 -14 -198 -18 -198 -3 0 -19 38 -34
85 -31 98 -130 256 -263 422 l-82 103 -12 96 c-9 73 -9 119 0 195 13 110 30
189 42 189 4 0 15 -21 25 -47z m-310 -93 c25 -50 90 -157 145 -238 55 -82 100
-155 100 -163 0 -8 18 -71 39 -140 48 -155 82 -339 62 -339 -4 0 -21 46 -39
103 -62 193 -139 327 -321 554 l-89 113 14 62 c22 96 34 138 39 138 3 0 25
-41 50 -90z m1681 -497 c-56 -116 -176 -286 -192 -270 -12 12 27 96 88 190 76
115 131 184 136 168 2 -6 -12 -46 -32 -88z m-409 -327 c-3 -8 -11 -33 -17 -54
-22 -85 -81 -195 -95 -180 -15 15 84 248 105 248 7 0 10 -6 7 -14z"/>
<path d="M5493 4443 c9 -2 23 -2 30 0 6 3 -1 5 -18 5 -16 0 -22 -2 -12 -5z"/>
<path d="M3745 4720 c-4 -23 -5 -43 -2 -46 2 -3 7 14 11 37 4 23 5 44 2 46 -2
2 -7 -14 -11 -37z"/>
</g>
</svg>
