<?xml version="1.0" standalone="no"?>
<!DOCTYPE svg PUBLIC "-//W3C//DTD SVG 20010904//EN"
 "http://www.w3.org/TR/2001/REC-SVG-20010904/DTD/svg10.dtd">
<svg version="1.0" xmlns="http://www.w3.org/2000/svg"
 width="945.000000pt" height="1024.000000pt" viewBox="0 0 945.000000 1024.000000"
 preserveAspectRatio="xMidYMid meet">

<g transform="translate(0.000000,1024.000000) scale(0.100000,-0.100000)"
fill="#000000" stroke="none">
<path d="M3043 7600 c-121 -74 -140 -378 -68 -1094 43 -420 36 -465 -100 -687
-135 -219 -225 -474 -255 -719 -21 -173 -9 -429 26 -592 5 -21 3 -28 -9 -28
-27 0 -259 -69 -357 -107 -355 -134 -843 -363 -777 -363 3 0 72 32 154 71 292
139 830 343 977 370 15 3 25 -10 47 -65 16 -38 29 -73 29 -78 0 -4 -43 -29
-95 -55 -52 -26 -95 -53 -95 -60 0 -8 38 6 101 38 56 27 102 49 104 47 12 -14
67 -110 64 -112 -2 -2 -51 -27 -109 -56 -232 -116 -540 -322 -735 -490 -145
-126 -325 -316 -325 -344 0 -18 38 1 115 59 274 204 737 486 1063 646 l142 71
51 -11 c27 -6 73 -11 100 -11 l51 0 -154 -102 c-335 -224 -646 -514 -883 -823
-83 -107 -123 -172 -91 -146 10 8 32 35 49 60 99 147 423 486 617 647 259 215
488 359 678 425 75 26 168 60 206 74 76 28 111 29 56 0 -69 -36 -248 -167
-375 -275 -154 -131 -591 -562 -749 -740 -250 -280 -549 -680 -507 -680 5 0
21 20 35 45 42 75 226 314 426 551 95 114 600 618 752 752 160 141 397 316
513 379 52 29 99 53 103 53 4 0 12 -8 19 -19 10 -16 8 -20 -15 -32 -56 -29
-274 -160 -334 -200 -234 -158 -455 -354 -602 -532 -101 -122 -221 -311 -296
-463 -55 -112 -74 -163 -51 -139 5 6 38 66 73 135 197 382 426 645 789 907
102 74 418 273 432 273 14 0 11 -2 -103 -87 -235 -175 -465 -420 -677 -723
-86 -122 -217 -332 -275 -440 -19 -36 -60 -110 -90 -165 -81 -144 -192 -384
-183 -393 4 -4 9 -2 12 3 2 6 19 35 39 65 20 30 61 98 92 150 199 341 401 643
529 791 26 31 75 89 108 129 111 134 475 474 632 589 17 13 36 20 43 16 8 -5
-21 -41 -82 -104 -329 -338 -549 -637 -739 -1006 -138 -267 -249 -549 -225
-572 12 -13 33 22 97 162 73 161 273 529 409 755 161 267 267 407 437 578 84
83 158 152 166 152 7 0 18 -5 24 -11 8 -8 -13 -40 -75 -117 -141 -176 -306
-449 -388 -642 -57 -135 -124 -313 -119 -318 8 -9 23 9 30 35 11 47 104 262
172 397 101 202 205 364 343 535 l75 93 59 -6 c32 -3 75 -6 95 -6 35 0 37 -2
38 -35 1 -42 27 -76 96 -129 105 -79 234 -119 387 -119 159 0 267 38 405 143
44 34 129 86 190 117 l110 56 64 -69 c241 -259 457 -601 593 -943 37 -93 115
-328 158 -476 40 -139 41 -143 47 -128 2 6 -3 40 -12 75 -122 476 -297 877
-518 1183 -79 110 -190 245 -246 300 -53 51 -61 69 -36 79 23 9 239 -178 342
-296 156 -180 264 -370 349 -618 24 -69 47 -123 51 -120 23 15 -38 185 -137
385 -79 159 -169 293 -269 400 -66 72 -210 203 -253 232 -38 25 -48 43 -27 43
20 0 198 -162 349 -316 341 -349 547 -670 723 -1124 88 -229 98 -261 131 -399
27 -110 36 -132 36 -85 0 55 -72 303 -144 499 -59 161 -226 487 -325 635 -50
74 -136 191 -193 260 -119 145 -370 400 -476 485 -72 57 -93 88 -30 44 185
-129 472 -396 627 -584 101 -123 266 -362 415 -603 133 -215 169 -262 186
-245 19 18 -20 122 -120 325 -95 192 -157 293 -285 463 -180 241 -415 467
-685 660 -52 37 -97 70 -99 72 -3 2 1 9 7 15 8 8 12 8 12 1 0 -5 19 -18 43
-27 142 -56 485 -307 690 -505 243 -234 542 -626 713 -933 31 -57 80 -144 109
-195 29 -50 59 -105 66 -122 8 -17 17 -31 21 -31 12 0 10 6 -33 93 -388 774
-897 1345 -1511 1692 -83 47 -101 66 -78 80 28 17 413 -212 600 -358 168 -132
349 -303 464 -439 146 -173 207 -266 321 -486 26 -51 50 -91 52 -89 6 7 -24
82 -75 182 -186 369 -632 816 -1069 1070 -87 50 -110 69 -45 37 20 -11 55 -27
77 -38 48 -22 327 -172 410 -222 124 -73 380 -246 532 -358 227 -168 358 -277
583 -487 116 -108 160 -137 160 -104 0 23 -110 190 -184 277 -91 109 -322 340
-451 451 -148 128 -422 322 -573 406 -52 30 -52 30 -31 49 20 18 22 18 72 0
91 -33 395 -174 607 -282 212 -108 220 -114 305 -227 53 -70 68 -61 19 12 -20
29 -33 55 -30 58 5 5 227 -116 328 -179 26 -16 53 -28 60 -26 16 6 -56 52
-272 172 -118 66 -193 115 -230 150 -151 146 -292 244 -535 372 -55 30 -98 54
-95 54 3 0 57 -18 120 -39 142 -48 267 -82 430 -115 248 -50 329 -54 306 -18
-25 41 -514 274 -730 348 -71 24 -132 46 -134 48 -2 2 11 48 28 102 66 208 86
362 69 561 -14 179 -87 445 -197 719 -11 28 -33 96 -48 150 -25 92 -26 109
-21 229 4 88 16 177 37 275 106 496 118 911 29 1024 -51 65 -128 74 -238 28
-153 -65 -302 -175 -576 -427 -188 -173 -266 -236 -324 -263 -64 -29 -123 -28
-346 9 -121 20 -177 23 -405 23 -230 0 -282 -2 -393 -22 -144 -25 -185 -27
-242 -11 -65 18 -119 63 -330 269 -289 283 -390 366 -528 431 -74 35 -137 38
-184 9z m215 -78 c109 -65 229 -167 437 -372 105 -103 215 -206 245 -230 113
-88 186 -102 365 -70 272 47 554 46 873 -6 84 -13 173 -24 197 -24 102 0 189
58 445 295 231 215 454 382 569 427 72 28 142 30 170 4 44 -40 56 -114 55
-331 -1 -209 -18 -381 -55 -555 -54 -253 -62 -307 -62 -435 -1 -154 -1 -156
129 -522 123 -345 138 -415 138 -653 1 -143 -3 -204 -17 -270 -20 -90 -71
-248 -86 -263 -5 -5 -50 1 -108 16 -214 55 -457 87 -659 87 l-130 0 -22 53
c-46 108 -123 175 -336 286 -127 66 -207 119 -231 154 -11 15 -15 47 -15 107
0 126 14 161 38 98 9 -23 9 -34 1 -39 -32 -20 64 -74 157 -90 138 -23 264 20
359 123 66 71 107 155 113 229 4 53 3 56 -31 86 -49 43 -153 67 -262 60 -72
-4 -96 -11 -168 -46 -147 -71 -234 -196 -246 -353 -5 -73 -8 -80 -19 -61 -6
12 -16 52 -22 90 -11 82 -2 157 41 327 37 148 43 280 17 366 -10 30 -50 105
-89 165 -70 108 -118 200 -174 339 -16 38 -39 81 -51 95 -22 25 -24 25 -51 11
-22 -12 -37 -39 -69 -117 -60 -148 -93 -197 -225 -338 -83 -89 -102 -117 -124
-184 -24 -72 -16 -166 25 -295 45 -141 60 -219 59 -311 -1 -109 -12 -134 -27
-63 -17 76 -61 163 -119 233 -38 47 -64 68 -123 97 -107 52 -179 65 -284 50
-129 -19 -176 -44 -189 -103 -8 -34 17 -130 49 -189 34 -62 118 -147 175 -176
94 -47 232 -52 348 -12 65 22 95 23 110 4 27 -32 -51 -120 -144 -162 -27 -13
-99 -34 -159 -49 -229 -54 -335 -149 -354 -316 l-7 -64 -165 -7 c-200 -8 -452
-39 -655 -80 -209 -42 -197 -43 -212 17 -27 105 -37 308 -25 458 27 307 93
504 275 817 97 167 107 201 107 367 0 76 -11 242 -25 368 -13 127 -30 320 -36
430 -11 174 -10 216 4 320 20 148 31 186 64 226 25 29 30 31 83 27 45 -3 73
-13 128 -46z m1608 -1100 c35 -82 87 -179 128 -242 109 -165 121 -196 120
-315 -1 -79 -7 -124 -32 -215 -74 -272 -62 -400 49 -546 50 -65 121 -114 284
-197 149 -76 234 -145 279 -226 15 -29 26 -54 24 -55 -1 -2 -61 -8 -133 -15
-156 -14 -257 -30 -270 -42 -5 -5 13 -9 45 -9 30 0 78 -7 105 -14 49 -14 49
-14 -82 -15 -82 -1 -133 -5 -133 -11 0 -6 39 -10 98 -10 114 0 226 -28 222
-56 0 -5 10 -10 22 -12 78 -10 128 -25 128 -38 0 -17 1 -17 -46 0 -56 19 -144
30 -144 18 0 -6 3 -12 8 -15 10 -5 -4 -2 -79 19 -58 17 -61 19 -34 24 17 3
-33 9 -109 13 -77 4 -142 5 -145 1 -9 -9 21 -22 68 -29 113 -16 441 -116 441
-135 0 -4 -6 -12 -12 -18 -9 -7 -39 0 -98 24 -47 18 -95 33 -107 34 -45 0 -22
-28 57 -70 44 -24 80 -47 80 -51 0 -24 -28 -16 -92 27 -78 51 -156 89 -166 80
-8 -9 36 -53 111 -108 62 -47 80 -68 58 -68 -6 0 -38 21 -73 48 -64 48 -208
132 -228 132 -22 0 -6 -19 95 -109 58 -51 105 -99 105 -106 0 -18 -21 -24
-114 -31 -198 -16 -443 86 -492 203 -26 61 -18 96 32 155 44 51 45 55 39 101
-8 61 4 77 59 77 59 0 106 31 106 70 0 66 -72 96 -200 81 -50 -5 -109 -5 -153
0 -98 13 -153 4 -188 -31 -48 -47 -53 -27 -59 224 -4 165 -2 227 7 246 27 56
45 152 38 209 -10 86 -41 218 -71 301 -19 56 -27 96 -27 155 -1 105 23 153
146 285 51 54 107 124 125 154 29 46 91 183 116 250 11 32 31 3 92 -142z
m-853 -801 c-16 -16 -35 -47 -41 -68 -26 -88 -5 -220 39 -243 60 -33 116 9
145 108 16 55 13 102 -11 165 -12 30 12 19 69 -34 80 -73 100 -109 94 -170 -6
-63 -33 -99 -89 -121 -143 -55 -328 12 -394 143 -68 132 4 248 153 249 l64 0
-29 -29z m1639 2 c53 -31 73 -67 73 -131 0 -98 -56 -177 -161 -228 -46 -22
-70 -28 -133 -28 -105 -1 -166 29 -200 97 -30 61 -23 100 29 165 36 46 105
100 115 90 3 -3 0 -30 -6 -62 -15 -82 3 -160 46 -203 121 -121 217 136 104
279 -20 25 -25 38 -16 42 23 11 118 -3 149 -21z m-1850 -16 c-12 -13 -26 -47
-32 -77 -6 -29 -12 -55 -14 -58 -6 -5 -26 68 -26 95 0 25 44 63 73 63 20 0 20
0 -1 -23z m1959 0 c39 -26 46 -54 26 -111 -15 -45 -37 -61 -30 -22 8 41 -6 93
-33 126 -32 37 -13 41 37 7z m-1657 -26 c29 -31 33 -128 8 -183 -11 -26 -30
-51 -41 -58 -33 -17 -71 26 -72 82 -2 76 2 102 24 141 23 42 53 49 81 18z
m1375 9 c46 -24 65 -145 35 -220 -14 -35 -20 -41 -42 -38 -43 5 -67 59 -67
148 1 105 23 138 74 110z m-1120 -251 c20 -58 15 -74 -24 -75 -39 -1 -40 1
-20 36 8 14 14 35 15 48 0 32 16 27 29 -9z m51 -394 c0 -142 3 -170 21 -218
30 -80 57 -101 125 -102 67 0 89 -21 78 -70 -12 -51 -7 -65 45 -120 58 -61 63
-85 30 -152 -50 -103 -286 -203 -478 -203 -118 0 -118 1 10 121 63 59 111 110
107 114 -8 8 -118 -53 -217 -122 -35 -24 -65 -42 -68 -39 -2 2 39 39 93 83 61
49 92 79 82 81 -21 4 -123 -47 -210 -105 -62 -41 -88 -47 -88 -22 0 26 225
148 343 185 31 10 57 21 57 26 0 13 -14 10 -101 -22 -44 -16 -84 -29 -88 -28
-3 1 -24 -7 -46 -19 -22 -11 -80 -38 -128 -58 -73 -31 -90 -36 -98 -24 -17 26
-8 34 74 68 144 60 367 166 367 173 0 19 -183 -5 -388 -49 -116 -25 -124 -26
-140 -9 -24 24 -10 30 122 52 94 16 104 20 66 22 -25 2 -78 -2 -119 -8 -77
-12 -99 -6 -88 24 5 14 31 16 170 16 192 0 289 8 284 24 -8 24 -141 47 -304
53 l-163 6 0 47 c0 58 47 157 93 196 51 43 144 81 257 104 116 24 199 62 250
115 18 19 37 32 42 29 4 -3 8 -79 8 -169z m584 -224 c33 -33 12 -55 -59 -61
-47 -5 -61 -10 -82 -34 -24 -29 -26 -51 -8 -97 4 -11 -10 -34 -42 -69 l-48
-52 -43 46 c-40 43 -42 49 -40 101 2 45 -2 58 -22 80 -19 20 -33 25 -74 25
-28 0 -57 4 -65 9 -22 14 -5 58 25 68 15 5 119 8 231 7 194 -2 207 -3 227 -23z
m-1274 -146 c0 -8 -3 -15 -7 -15 -5 0 -81 -11 -169 -25 -281 -42 -507 -99
-684 -174 -52 -21 -98 -36 -102 -33 -11 12 -58 135 -53 140 9 10 269 60 420
81 184 26 323 38 478 40 98 1 117 -1 117 -14z m320 5 c16 -5 -26 -9 -112 -11
-76 -1 -143 -2 -150 -3 -6 -1 -13 5 -15 12 -4 9 25 12 124 11 70 -1 139 -5
153 -9z m1690 -11 c0 -21 -3 -22 -87 -15 -49 4 -104 10 -123 14 -33 6 -31 7
25 13 33 3 88 6 123 7 57 2 62 0 62 -19z m365 11 c167 -16 297 -37 429 -70 65
-16 120 -31 123 -34 4 -3 -35 -81 -63 -128 -2 -3 -57 11 -122 33 -139 48 -396
111 -542 134 -126 19 -150 28 -150 55 0 19 6 20 108 20 59 0 157 -5 217 -10z
m-2370 -79 c0 -19 -7 -26 -30 -32 -16 -4 -84 -19 -150 -34 -170 -39 -476 -143
-646 -219 l-57 -25 -19 22 c-24 27 -53 74 -53 84 0 10 30 22 185 74 248 83
617 161 735 155 30 -1 35 -4 35 -25z m1952 3 c47 -6 75 -26 58 -42 -7 -7 -165
29 -171 40 -6 10 41 10 113 2z m350 -50 c222 -45 523 -134 523 -155 0 -5 -13
-23 -28 -41 l-29 -31 -114 37 c-198 66 -459 146 -530 162 -63 14 -69 18 -69
41 0 25 0 26 63 19 34 -4 117 -19 184 -32z m828 -43 c181 -63 293 -111 491
-209 158 -78 194 -102 157 -102 -74 0 -379 67 -548 120 -49 16 -143 45 -208
65 -65 20 -117 40 -115 44 22 54 65 131 73 131 6 0 74 -22 150 -49z m-3110 18
c4 -12 3 -24 -2 -29 -4 -4 -53 -22 -108 -40 -161 -52 -400 -144 -533 -204 -68
-31 -132 -56 -141 -56 -25 0 -105 60 -95 70 16 15 327 138 429 169 111 34 400
109 427 110 9 1 20 -8 23 -20z m414 11 c-10 -6 -55 -23 -102 -40 -46 -16 -113
-43 -148 -60 -41 -19 -67 -26 -73 -20 -17 17 3 26 164 79 155 50 190 59 159
41z m-131 -5 c-14 -14 -208 -72 -213 -64 -8 11 3 16 113 44 94 25 108 28 100
20z m1872 -71 c119 -38 299 -112 385 -158 45 -24 47 -26 18 -22 -17 3 -92 29
-165 57 -73 29 -184 71 -247 93 -63 23 -116 47 -119 54 -5 17 2 16 128 -24z
m-227 0 c15 -3 27 -10 27 -16 0 -11 -33 -2 -70 19 -19 10 -20 12 -5 9 11 -3
32 -8 48 -12z m-1908 -13 c0 -6 -54 -36 -120 -65 -66 -29 -181 -82 -255 -118
-146 -71 -221 -91 -315 -86 l-60 3 70 34 c128 61 559 225 640 244 27 6 40 3
40 -12z m2135 -65 c63 -24 142 -55 175 -69 121 -51 220 -79 291 -82 84 -4 92
-8 279 -128 277 -178 492 -354 735 -603 171 -176 326 -374 292 -374 -5 0 -61
48 -124 108 -229 214 -384 340 -668 544 -321 230 -719 460 -1006 583 -60 25
-113 50 -118 56 -22 20 35 7 144 -35z m-2110 20 c0 -8 -17 -20 -37 -27 -21 -6
-78 -27 -126 -46 -49 -19 -91 -32 -94 -29 -3 3 5 10 18 15 13 5 51 21 84 37
147 69 155 71 155 50z m1783 -23 c39 -20 67 -38 60 -40 -13 -5 -128 51 -138
67 -10 16 1 12 78 -27z m-797 -23 c21 -53 63 -88 165 -137 89 -44 180 -68 292
-78 l68 -7 -33 -17 c-18 -9 -67 -43 -108 -75 -166 -130 -345 -172 -547 -130
-144 29 -308 134 -301 192 3 23 11 28 78 44 80 20 232 92 291 139 19 15 44 46
54 68 10 23 20 41 22 41 2 0 10 -18 19 -40z m1535 -3 c68 -24 131 -46 139 -49
12 -4 10 -7 -8 -17 -20 -11 -37 -5 -145 48 -67 33 -119 60 -116 60 3 1 62 -19
130 -42z m559 -97 c126 -63 289 -174 396 -269 67 -59 43 -51 -201 73 -110 56
-272 133 -360 171 -88 38 -162 70 -164 71 -1 2 11 21 29 42 l32 40 91 -43 c51
-23 130 -61 177 -85z m-2740 79 c-14 -11 -46 -38 -72 -59 -26 -22 -52 -40 -59
-40 -20 0 11 30 81 76 68 46 92 57 50 23z m1280 -52 c30 -22 57 -42 59 -44 3
-2 0 -8 -7 -15 -8 -8 -26 3 -69 42 -93 84 -86 91 17 17z m-1245 -27 c-56 -56
-95 -76 -95 -47 0 10 135 107 149 107 3 0 -21 -27 -54 -60z m1584 -30 c108
-74 309 -241 416 -346 269 -264 503 -608 640 -939 20 -48 35 -91 33 -97 -4
-11 -64 78 -158 237 -87 146 -262 401 -360 525 -166 209 -408 442 -607 584
-90 65 -101 84 -55 95 2 1 43 -26 91 -59z m-1838 30 c28 -15 24 -23 -26 -59
-161 -116 -492 -429 -659 -625 -137 -161 -212 -262 -362 -491 -70 -107 -129
-193 -132 -191 -7 8 179 318 292 486 244 363 472 610 761 823 50 37 94 67 98
67 5 0 17 -5 28 -10z m-1011 -90 c0 -3 -26 -18 -57 -34 -305 -147 -835 -465
-1066 -639 -98 -73 -86 -49 30 64 248 243 594 484 948 662 l49 24 48 -35 c26
-20 48 -39 48 -42z m634 -497 c-9 -16 -41 -64 -69 -108 -119 -182 -352 -600
-438 -783 -38 -81 -45 -75 -11 9 114 280 342 682 492 867 39 48 53 56 26 15z"/>
<path d="M6331 7440 c-183 -101 -417 -348 -643 -679 -91 -133 -83 -151 100
-221 259 -100 393 -189 467 -310 40 -65 61 -74 95 -40 47 47 95 185 134 387
47 241 58 362 53 563 -7 266 -29 330 -116 330 -21 0 -58 -13 -90 -30z m131
-27 c9 -10 22 -45 29 -78 17 -81 17 -396 1 -515 -21 -149 -69 -378 -96 -458
-26 -76 -65 -152 -77 -152 -4 0 -21 24 -37 53 -38 68 -125 147 -216 197 -39
22 -138 67 -221 101 -82 34 -156 68 -164 75 -17 16 3 52 117 209 121 166 269
333 379 425 177 149 248 184 285 143z"/>
<path d="M3107 7422 c-52 -54 -69 -128 -74 -325 -8 -255 32 -610 87 -789 41
-133 100 -139 259 -25 101 73 274 161 396 201 44 14 95 35 113 46 28 17 32 25
32 62 0 35 -12 63 -63 148 -138 228 -330 471 -465 586 -147 126 -230 154 -285
96z m162 -55 c138 -83 435 -439 576 -691 57 -103 50 -114 -104 -161 -106 -32
-247 -100 -331 -159 -154 -108 -193 -123 -229 -87 -53 53 -121 598 -108 866 7
131 35 247 65 265 25 15 69 4 131 -33z"/>
<path d="M5473 4443 c9 -2 23 -2 30 0 6 3 -1 5 -18 5 -16 0 -22 -2 -12 -5z"/>
</g>
</svg>
