<svg version="1.0" xmlns="http://www.w3.org/2000/svg"
 width="945.000000pt" height="1024.000000pt" viewBox="0 0 945.000000 1024.000000"
 preserveAspectRatio="xMidYMid meet">

<g transform="translate(0.000000,1024.000000) scale(0.100000,-0.100000)"
fill="#000000" stroke="none">
<path d="M5380 7435 c-16 -19 -200 -1198 -200 -1281 0 -37 27 -59 60 -49 24 8
26 15 45 150 26 189 157 1020 162 1025 2 2 7 0 11 -6 4 -5 57 -70 117 -143 61
-73 144 -175 185 -226 331 -407 365 -445 395 -445 26 0 45 18 45 43 0 10 -98
138 -217 284 -120 146 -252 306 -293 357 -215 263 -253 306 -275 306 -13 0
-28 -7 -35 -15z"/>
<path d="M7234 7257 c-85 -99 -656 -808 -696 -863 l-29 -41 -143 5 c-162 5
-255 -5 -424 -49 -296 -76 -580 -236 -801 -450 -58 -56 -66 -60 -75 -44 -6 10
-36 50 -67 89 -190 242 -484 406 -824 461 -55 9 -160 15 -272 15 l-181 0 -27
45 c-31 54 -85 95 -164 127 -54 22 -70 23 -388 26 -199 2 -354 -1 -387 -7
-169 -31 -309 -179 -375 -395 -41 -135 -81 -428 -81 -604 0 -58 -4 -80 -21
-103 -60 -84 -168 -372 -209 -559 -63 -283 -66 -584 -9 -879 25 -130 97 -362
147 -477 55 -125 167 -321 242 -423 81 -109 269 -296 342 -339 289 -171 608
-91 797 200 71 110 55 105 144 48 248 -160 704 -376 994 -471 l133 -43 87 28
c185 60 538 223 782 361 808 458 1380 1050 1564 1620 70 216 81 294 81 540 0
189 -3 234 -22 323 -29 133 -66 249 -108 341 -109 238 -340 467 -556 551 -38
15 -71 29 -74 33 -6 5 25 45 281 361 66 81 140 174 165 206 25 32 73 92 108
135 l62 76 0 -579 c0 -548 1 -580 18 -595 23 -21 46 -22 66 -1 14 14 16 89 16
674 0 585 -2 660 -16 674 -24 25 -49 19 -80 -17z m-3748 -790 c49 -16 145 -89
134 -100 -3 -3 -46 -15 -95 -25 -453 -99 -860 -348 -1110 -677 -14 -20 -14
-20 -15 1 -2 120 55 448 95 545 52 128 149 233 240 258 68 18 81 19 395 17
256 -2 313 -5 356 -19z m724 -206 c263 -56 453 -153 622 -319 92 -89 171 -198
231 -317 71 -142 134 -208 306 -321 l74 -49 -169 -6 c-184 -6 -224 -15 -262
-64 -17 -21 -22 -41 -22 -84 0 -47 6 -67 37 -120 50 -83 168 -194 271 -255 45
-26 82 -52 82 -58 0 -18 -50 -110 -86 -160 -46 -62 -145 -152 -209 -189 -157
-92 -362 -92 -517 -2 -78 46 -186 143 -240 215 -51 69 -79 83 -106 56 -34 -34
19 -122 146 -239 120 -110 239 -170 378 -189 241 -32 464 77 641 315 l22 30 1
-53 c1 -250 -110 -484 -303 -638 -96 -76 -248 -154 -362 -186 -117 -32 -340
-32 -440 -1 -102 33 -187 87 -293 188 -90 86 -122 121 -286 321 -163 198 -281
268 -451 268 -66 0 -91 -5 -139 -27 -90 -41 -140 -88 -177 -163 -82 -167 -32
-407 129 -620 75 -99 275 -292 394 -382 l88 -65 -29 -49 c-46 -80 -136 -184
-193 -223 -102 -69 -245 -93 -364 -61 -311 83 -664 580 -805 1130 -76 298 -79
686 -8 971 41 163 122 395 138 395 4 0 16 -37 25 -82 58 -267 212 -506 380
-588 61 -30 78 -34 151 -34 76 0 90 3 158 37 103 51 201 144 288 274 81 123
109 176 174 333 163 395 289 861 269 990 -6 34 -4 39 17 43 56 13 346 -2 439
-22z m-556 -82 c-3 -143 -94 -469 -227 -810 -78 -198 -115 -274 -197 -399
-182 -275 -386 -345 -556 -188 -131 121 -221 308 -259 543 -23 139 -23 142 48
241 206 293 547 528 925 638 134 39 242 65 257 62 6 -2 9 -38 9 -87z m2874 60
c327 -76 601 -368 701 -749 45 -174 55 -250 54 -420 -1 -279 -73 -548 -195
-729 -108 -160 -254 -292 -417 -379 -159 -85 -280 -112 -501 -112 -171 0 -289
17 -459 66 l-123 36 -21 -20 c-14 -14 -18 -27 -13 -45 5 -21 19 -30 83 -51
218 -72 508 -103 710 -75 170 23 333 83 461 171 52 36 54 25 5 -33 -325 -387
-859 -782 -1437 -1060 -198 -94 -348 -159 -443 -190 l-73 -23 -122 41 c-133
44 -428 168 -573 240 -101 51 -329 180 -418 237 -43 28 -57 42 -53 54 67 205
98 373 100 554 0 76 2 138 4 138 1 0 31 -30 65 -67 293 -315 592 -394 982
-261 126 43 189 76 302 162 223 168 336 385 359 694 4 51 9 92 11 92 3 0 27
-20 54 -44 162 -146 418 -138 540 17 82 103 109 186 69 207 -33 18 -54 4 -83
-55 -58 -119 -141 -177 -257 -177 -90 -1 -160 33 -234 113 -31 33 -63 74 -72
90 l-15 30 61 66 c83 91 122 175 128 274 4 66 1 84 -20 130 -29 64 -52 84
-228 199 -74 48 -156 106 -183 130 -44 39 -147 190 -147 215 0 22 216 209 320
277 358 236 759 331 1078 257z m-1019 -1088 c95 -11 106 -23 105 -104 -1 -79
-41 -160 -118 -236 l-53 -52 -69 37 c-132 71 -199 130 -258 228 -54 90 -47
111 41 126 65 10 261 11 352 1z m-2117 -861 c29 -11 78 -39 109 -62 63 -48
163 -162 179 -204 18 -47 24 -279 11 -408 -16 -148 -70 -366 -91 -366 -14 0
-120 84 -213 168 -102 92 -233 242 -282 322 -41 68 -81 185 -90 265 -24 214
172 363 377 285z"/>
<path d="M4160 5618 c-106 -54 -139 -191 -69 -287 85 -118 269 -105 337 24 23
44 21 132 -4 180 -48 93 -170 131 -264 83z m140 -85 c58 -34 68 -116 21 -164
-65 -64 -171 -20 -171 71 0 34 6 48 34 76 38 38 72 43 116 17z"/>
<path d="M6030 5618 c-26 -14 -57 -41 -75 -66 -26 -38 -30 -52 -30 -111 0 -58
4 -74 28 -108 39 -56 91 -83 162 -83 104 0 174 62 191 167 24 153 -138 271
-276 201z m130 -83 c37 -19 50 -43 50 -95 0 -56 -42 -100 -95 -100 -102 0
-132 148 -40 198 28 16 51 15 85 -3z"/>
<path d="M6870 5309 c-107 -32 -221 -65 -252 -74 -39 -10 -59 -21 -63 -35 -10
-30 12 -60 44 -60 55 0 510 133 523 153 20 31 -5 78 -40 76 -9 -1 -105 -28
-212 -60z"/>
<path d="M6532 5058 c-16 -16 -15 -53 1 -66 6 -5 46 -17 87 -26 41 -9 166 -37
278 -63 217 -50 234 -50 240 -1 2 14 -4 30 -12 37 -17 14 -133 43 -384 97
-181 38 -193 39 -210 22z"/>
<path d="M6490 4890 c-41 -41 -40 -42 140 -162 69 -46 161 -109 205 -140 99
-69 125 -76 145 -38 7 14 8 26 0 39 -16 31 -434 321 -462 321 -4 0 -17 -9 -28
-20z"/>
</g>
</svg>
